<?xml version="1.0" encoding="utf-8" standalone="no"?>
<!DOCTYPE svg PUBLIC "-//W3C//DTD SVG 1.1//EN"
  "http://www.w3.org/Graphics/SVG/1.1/DTD/svg11.dtd">
<!-- Created with matplotlib (http://matplotlib.org/) -->
<svg height="720pt" version="1.1" viewBox="0 0 1152 720" width="1152pt" xmlns="http://www.w3.org/2000/svg" xmlns:xlink="http://www.w3.org/1999/xlink">
 <defs>
  <style type="text/css">
*{stroke-linecap:butt;stroke-linejoin:round;}
  </style>
 </defs>
 <g id="figure_1">
  <g id="patch_1">
   <path d="M 0 720 
L 1152 720 
L 1152 0 
L 0 0 
z
" style="fill:#ffffff;"/>
  </g>
  <g id="axes_1">
   <g id="LineCollection_1">
    <path clip-path="url(#p56b76fb328)" d="M 952.113898 453.23058 
L 823.555555 443.467522 
" style="fill:none;stroke:#555555;stroke-width:6;"/>
    <path clip-path="url(#p56b76fb328)" d="M 795.247904 590.956475 
L 823.555555 443.467522 
" style="fill:none;stroke:#555555;stroke-width:6;"/>
    <path clip-path="url(#p56b76fb328)" d="M 722.415656 411.795601 
L 823.555555 443.467522 
" style="fill:none;stroke:#555555;stroke-width:6;"/>
    <path clip-path="url(#p56b76fb328)" d="M 954.268624 536.802703 
L 823.555555 443.467522 
" style="fill:none;stroke:#555555;stroke-width:6;"/>
    <path clip-path="url(#p56b76fb328)" d="M 587.24392 303.938024 
L 823.555555 443.467522 
" style="fill:none;stroke:#555555;stroke-width:6;"/>
    <path clip-path="url(#p56b76fb328)" d="M 719.754567 241.477769 
L 823.555555 443.467522 
" style="fill:none;stroke:#555555;stroke-width:6;"/>
    <path clip-path="url(#p56b76fb328)" d="M 719.754567 241.477769 
L 610.113063 221.733715 
" style="fill:none;stroke:#555555;stroke-width:6;"/>
    <path clip-path="url(#p56b76fb328)" d="M 748.718901 449.911556 
L 823.555555 443.467522 
" style="fill:none;stroke:#555555;stroke-width:6;"/>
    <path clip-path="url(#p56b76fb328)" d="M 231.074497 182.67215 
L 327.196351 267.952614 
" style="fill:none;stroke:#555555;stroke-width:6;"/>
    <path clip-path="url(#p56b76fb328)" d="M 337.373362 163.340326 
L 327.196351 267.952614 
" style="fill:none;stroke:#555555;stroke-width:6;"/>
    <path clip-path="url(#p56b76fb328)" d="M 233.656937 349.005358 
L 327.196351 267.952614 
" style="fill:none;stroke:#555555;stroke-width:6;"/>
    <path clip-path="url(#p56b76fb328)" d="M 195.462397 282.016158 
L 327.196351 267.952614 
" style="fill:none;stroke:#555555;stroke-width:6;"/>
    <path clip-path="url(#p56b76fb328)" d="M 310.618455 340.367176 
L 327.196351 267.952614 
" style="fill:none;stroke:#555555;stroke-width:6;"/>
    <path clip-path="url(#p56b76fb328)" d="M 565.219685 359.957044 
L 327.196351 267.952614 
" style="fill:none;stroke:#555555;stroke-width:6;"/>
    <path clip-path="url(#p56b76fb328)" d="M 283.336748 202.3745 
L 327.196351 267.952614 
" style="fill:none;stroke:#555555;stroke-width:6;"/>
    <path clip-path="url(#p56b76fb328)" d="M 261.558932 161.527727 
L 327.196351 267.952614 
" style="fill:none;stroke:#555555;stroke-width:6;"/>
   </g>
   <g id="LineCollection_2">
    <path clip-path="url(#p56b76fb328)" d="M 861.71562 349.8116 
L 823.555555 443.467522 
" style="fill:none;stroke:#aaaaaa;"/>
    <path clip-path="url(#p56b76fb328)" d="M 807.607842 381.695766 
L 823.555555 443.467522 
" style="fill:none;stroke:#aaaaaa;stroke-width:3;"/>
    <path clip-path="url(#p56b76fb328)" d="M 917.574316 332.985702 
L 823.555555 443.467522 
" style="fill:none;stroke:#aaaaaa;stroke-width:3;"/>
    <path clip-path="url(#p56b76fb328)" d="M 700.736629 513.633218 
L 823.555555 443.467522 
" style="fill:none;stroke:#aaaaaa;stroke-width:5;"/>
    <path clip-path="url(#p56b76fb328)" d="M 587.24392 303.938024 
L 634.96022 204.34427 
" style="fill:none;stroke:#aaaaaa;"/>
    <path clip-path="url(#p56b76fb328)" d="M 587.24392 303.938024 
L 636.598842 238.561445 
" style="fill:none;stroke:#aaaaaa;"/>
    <path clip-path="url(#p56b76fb328)" d="M 587.24392 303.938024 
L 610.113063 221.733715 
" style="fill:none;stroke:#aaaaaa;stroke-width:4;"/>
    <path clip-path="url(#p56b76fb328)" d="M 587.24392 303.938024 
L 327.196351 267.952614 
" style="fill:none;stroke:#aaaaaa;"/>
    <path clip-path="url(#p56b76fb328)" d="M 872.146271 545.868312 
L 823.555555 443.467522 
" style="fill:none;stroke:#aaaaaa;stroke-width:2;"/>
    <path clip-path="url(#p56b76fb328)" d="M 798.839043 507.519819 
L 823.555555 443.467522 
" style="fill:none;stroke:#aaaaaa;stroke-width:4;"/>
    <path clip-path="url(#p56b76fb328)" d="M 703.771667 478.565754 
L 823.555555 443.467522 
" style="fill:none;stroke:#aaaaaa;"/>
    <path clip-path="url(#p56b76fb328)" d="M 719.754567 241.477769 
L 709.631196 123.060348 
" style="fill:none;stroke:#aaaaaa;"/>
    <path clip-path="url(#p56b76fb328)" d="M 719.754567 241.477769 
L 634.96022 204.34427 
" style="fill:none;stroke:#aaaaaa;stroke-width:4;"/>
    <path clip-path="url(#p56b76fb328)" d="M 719.754567 241.477769 
L 636.598842 238.561445 
" style="fill:none;stroke:#aaaaaa;"/>
    <path clip-path="url(#p56b76fb328)" d="M 719.754567 241.477769 
L 754.401714 127.145005 
" style="fill:none;stroke:#aaaaaa;"/>
    <path clip-path="url(#p56b76fb328)" d="M 871.290034 586.437787 
L 823.555555 443.467522 
" style="fill:none;stroke:#aaaaaa;"/>
    <path clip-path="url(#p56b76fb328)" d="M 923.84543 549.640207 
L 823.555555 443.467522 
" style="fill:none;stroke:#aaaaaa;stroke-width:3;"/>
    <path clip-path="url(#p56b76fb328)" d="M 822.382928 335.276994 
L 823.555555 443.467522 
" style="fill:none;stroke:#aaaaaa;"/>
    <path clip-path="url(#p56b76fb328)" d="M 934.853861 382.86106 
L 823.555555 443.467522 
" style="fill:none;stroke:#aaaaaa;"/>
    <path clip-path="url(#p56b76fb328)" d="M 207.361169 317.316229 
L 327.196351 267.952614 
" style="fill:none;stroke:#aaaaaa;"/>
    <path clip-path="url(#p56b76fb328)" d="M 258.609222 313.352483 
L 327.196351 267.952614 
" style="fill:none;stroke:#aaaaaa;stroke-width:5;"/>
    <path clip-path="url(#p56b76fb328)" d="M 246.996079 230.580546 
L 327.196351 267.952614 
" style="fill:none;stroke:#aaaaaa;stroke-width:2;"/>
    <path clip-path="url(#p56b76fb328)" d="M 748.729295 500.345498 
L 823.555555 443.467522 
" style="fill:none;stroke:#aaaaaa;stroke-width:5;"/>
    <path clip-path="url(#p56b76fb328)" d="M 971.276246 387.144242 
L 823.555555 443.467522 
" style="fill:none;stroke:#aaaaaa;"/>
    <path clip-path="url(#p56b76fb328)" d="M 894.406095 371.963045 
L 823.555555 443.467522 
" style="fill:none;stroke:#aaaaaa;stroke-width:2;"/>
    <path clip-path="url(#p56b76fb328)" d="M 888.635046 314.022292 
L 823.555555 443.467522 
" style="fill:none;stroke:#aaaaaa;"/>
    <path clip-path="url(#p56b76fb328)" d="M 738.077003 569.190619 
L 823.555555 443.467522 
" style="fill:none;stroke:#aaaaaa;"/>
    <path clip-path="url(#p56b76fb328)" d="M 726.780792 537.342835 
L 823.555555 443.467522 
" style="fill:none;stroke:#aaaaaa;"/>
    <path clip-path="url(#p56b76fb328)" d="M 794.196718 545.610738 
L 823.555555 443.467522 
" style="fill:none;stroke:#aaaaaa;"/>
    <path clip-path="url(#p56b76fb328)" d="M 942.343106 503.630154 
L 823.555555 443.467522 
" style="fill:none;stroke:#aaaaaa;"/>
    <path clip-path="url(#p56b76fb328)" d="M 698.658848 442.737745 
L 823.555555 443.467522 
" style="fill:none;stroke:#aaaaaa;stroke-width:3;"/>
    <path clip-path="url(#p56b76fb328)" d="M 788.149114 324.606324 
L 823.555555 443.467522 
" style="fill:none;stroke:#aaaaaa;"/>
    <path clip-path="url(#p56b76fb328)" d="M 849.005537 307.505481 
L 823.555555 443.467522 
" style="fill:none;stroke:#aaaaaa;"/>
    <path clip-path="url(#p56b76fb328)" d="M 902.679147 512.76408 
L 823.555555 443.467522 
" style="fill:none;stroke:#aaaaaa;stroke-width:5;"/>
    <path clip-path="url(#p56b76fb328)" d="M 732.919515 377.00922 
L 823.555555 443.467522 
" style="fill:none;stroke:#aaaaaa;"/>
    <path clip-path="url(#p56b76fb328)" d="M 298.739898 154.731443 
L 327.196351 267.952614 
" style="fill:none;stroke:#aaaaaa;stroke-width:2;"/>
    <path clip-path="url(#p56b76fb328)" d="M 905.046998 574.590229 
L 823.555555 443.467522 
" style="fill:none;stroke:#aaaaaa;stroke-width:2;"/>
    <path clip-path="url(#p56b76fb328)" d="M 834.513805 559.52 
L 823.555555 443.467522 
" style="fill:none;stroke:#aaaaaa;"/>
    <path clip-path="url(#p56b76fb328)" d="M 931.868132 420.567055 
L 823.555555 443.467522 
" style="fill:none;stroke:#aaaaaa;stroke-width:3;"/>
    <path clip-path="url(#p56b76fb328)" d="M 833.812133 594.622319 
L 823.555555 443.467522 
" style="fill:none;stroke:#aaaaaa;stroke-width:4;"/>
    <path clip-path="url(#p56b76fb328)" d="M 768.657036 565.020359 
L 823.555555 443.467522 
" style="fill:none;stroke:#aaaaaa;"/>
    <path clip-path="url(#p56b76fb328)" d="M 885.542428 418.068273 
L 823.555555 443.467522 
" style="fill:none;stroke:#aaaaaa;stroke-width:4;"/>
    <path clip-path="url(#p56b76fb328)" d="M 975.403261 496.012952 
L 823.555555 443.467522 
" style="fill:none;stroke:#aaaaaa;"/>
    <path clip-path="url(#p56b76fb328)" d="M 766.407061 361.19368 
L 823.555555 443.467522 
" style="fill:none;stroke:#aaaaaa;stroke-width:2;"/>
    <path clip-path="url(#p56b76fb328)" d="M 345.57204 202.98027 
L 327.196351 267.952614 
" style="fill:none;stroke:#aaaaaa;stroke-width:3;"/>
    <path clip-path="url(#p56b76fb328)" d="M 985.337603 459.998122 
L 823.555555 443.467522 
" style="fill:none;stroke:#aaaaaa;"/>
    <path clip-path="url(#p56b76fb328)" d="M 912.806971 469.487568 
L 823.555555 443.467522 
" style="fill:none;stroke:#aaaaaa;stroke-width:4;"/>
    <path clip-path="url(#p56b76fb328)" d="M 196.829072 245.440126 
L 327.196351 267.952614 
" style="fill:none;stroke:#aaaaaa;"/>
    <path clip-path="url(#p56b76fb328)" d="M 206.439911 210.169035 
L 327.196351 267.952614 
" style="fill:none;stroke:#aaaaaa;"/>
    <path clip-path="url(#p56b76fb328)" d="M 565.219685 359.957044 
L 823.555555 443.467522 
" style="fill:none;stroke:#aaaaaa;stroke-width:4;"/>
    <path clip-path="url(#p56b76fb328)" d="M 239.156928 273.460879 
L 327.196351 267.952614 
" style="fill:none;stroke:#aaaaaa;stroke-width:4;"/>
    <path clip-path="url(#p56b76fb328)" d="M 273.668655 363.277769 
L 327.196351 267.952614 
" style="fill:none;stroke:#aaaaaa;"/>
    <path clip-path="url(#p56b76fb328)" d="M 855.822826 503.409815 
L 823.555555 443.467522 
" style="fill:none;stroke:#aaaaaa;stroke-width:3;"/>
    <path clip-path="url(#p56b76fb328)" d="M 979.471086 421.384202 
L 823.555555 443.467522 
" style="fill:none;stroke:#aaaaaa;"/>
    <path clip-path="url(#p56b76fb328)" d="M 949.502679 349.636778 
L 823.555555 443.467522 
" style="fill:none;stroke:#aaaaaa;"/>
   </g>
   <g id="PathCollection_1">
    <defs>
     <path d="M 0 15 
C 3.978047 15 7.793698 13.419505 10.606602 10.606602 
C 13.419505 7.793698 15 3.978047 15 0 
C 15 -3.978047 13.419505 -7.793698 10.606602 -10.606602 
C 7.793698 -13.419505 3.978047 -15 0 -15 
C -3.978047 -15 -7.793698 -13.419505 -10.606602 -10.606602 
C -13.419505 -7.793698 -15 -3.978047 -15 0 
C -15 3.978047 -13.419505 7.793698 -10.606602 10.606602 
C -7.793698 13.419505 -3.978047 15 0 15 
z
" id="m34f3ae3ee4" style="stroke:#aa0000;"/>
    </defs>
    <g clip-path="url(#p56b76fb328)">
     <use style="fill:#aa0000;stroke:#aa0000;" x="587.24392" xlink:href="#m34f3ae3ee4" y="303.938024"/>
     <use style="fill:#aa0000;stroke:#aa0000;" x="719.754567" xlink:href="#m34f3ae3ee4" y="241.477769"/>
    </g>
   </g>
   <g id="PathCollection_2">
    <defs>
     <path d="M 0 11.18034 
C 2.965061 11.18034 5.80908 10.002309 7.905694 7.905694 
C 10.002309 5.80908 11.18034 2.965061 11.18034 0 
C 11.18034 -2.965061 10.002309 -5.80908 7.905694 -7.905694 
C 5.80908 -10.002309 2.965061 -11.18034 0 -11.18034 
C -2.965061 -11.18034 -5.80908 -10.002309 -7.905694 -7.905694 
C -10.002309 -5.80908 -11.18034 -2.965061 -11.18034 0 
C -11.18034 2.965061 -10.002309 5.80908 -7.905694 7.905694 
C -5.80908 10.002309 -2.965061 11.18034 0 11.18034 
z
" id="mec5f5f08f4" style="stroke:#ff0000;"/>
    </defs>
    <g clip-path="url(#p56b76fb328)">
     <use style="fill:#ff0000;stroke:#ff0000;" x="861.71562" xlink:href="#mec5f5f08f4" y="349.8116"/>
     <use style="fill:#ff0000;stroke:#ff0000;" x="952.113898" xlink:href="#mec5f5f08f4" y="453.23058"/>
     <use style="fill:#ff0000;stroke:#ff0000;" x="795.247904" xlink:href="#mec5f5f08f4" y="590.956475"/>
     <use style="fill:#ff0000;stroke:#ff0000;" x="807.607842" xlink:href="#mec5f5f08f4" y="381.695766"/>
     <use style="fill:#ff0000;stroke:#ff0000;" x="917.574316" xlink:href="#mec5f5f08f4" y="332.985702"/>
     <use style="fill:#ff0000;stroke:#ff0000;" x="722.415656" xlink:href="#mec5f5f08f4" y="411.795601"/>
     <use style="fill:#ff0000;stroke:#ff0000;" x="954.268624" xlink:href="#mec5f5f08f4" y="536.802703"/>
     <use style="fill:#ff0000;stroke:#ff0000;" x="700.736629" xlink:href="#mec5f5f08f4" y="513.633218"/>
     <use style="fill:#ff0000;stroke:#ff0000;" x="587.24392" xlink:href="#mec5f5f08f4" y="303.938024"/>
     <use style="fill:#ff0000;stroke:#ff0000;" x="872.146271" xlink:href="#mec5f5f08f4" y="545.868312"/>
     <use style="fill:#ff0000;stroke:#ff0000;" x="798.839043" xlink:href="#mec5f5f08f4" y="507.519819"/>
     <use style="fill:#ff0000;stroke:#ff0000;" x="703.771667" xlink:href="#mec5f5f08f4" y="478.565754"/>
     <use style="fill:#ff0000;stroke:#ff0000;" x="719.754567" xlink:href="#mec5f5f08f4" y="241.477769"/>
     <use style="fill:#ff0000;stroke:#ff0000;" x="748.718901" xlink:href="#mec5f5f08f4" y="449.911556"/>
     <use style="fill:#ff0000;stroke:#ff0000;" x="871.290034" xlink:href="#mec5f5f08f4" y="586.437787"/>
     <use style="fill:#ff0000;stroke:#ff0000;" x="923.84543" xlink:href="#mec5f5f08f4" y="549.640207"/>
     <use style="fill:#ff0000;stroke:#ff0000;" x="822.382928" xlink:href="#mec5f5f08f4" y="335.276994"/>
     <use style="fill:#ff0000;stroke:#ff0000;" x="934.853861" xlink:href="#mec5f5f08f4" y="382.86106"/>
     <use style="fill:#ff0000;stroke:#ff0000;" x="207.361169" xlink:href="#mec5f5f08f4" y="317.316229"/>
     <use style="fill:#ff0000;stroke:#ff0000;" x="258.609222" xlink:href="#mec5f5f08f4" y="313.352483"/>
     <use style="fill:#ff0000;stroke:#ff0000;" x="246.996079" xlink:href="#mec5f5f08f4" y="230.580546"/>
     <use style="fill:#ff0000;stroke:#ff0000;" x="231.074497" xlink:href="#mec5f5f08f4" y="182.67215"/>
     <use style="fill:#ff0000;stroke:#ff0000;" x="748.729295" xlink:href="#mec5f5f08f4" y="500.345498"/>
     <use style="fill:#ff0000;stroke:#ff0000;" x="337.373362" xlink:href="#mec5f5f08f4" y="163.340326"/>
     <use style="fill:#ff0000;stroke:#ff0000;" x="233.656937" xlink:href="#mec5f5f08f4" y="349.005358"/>
     <use style="fill:#ff0000;stroke:#ff0000;" x="971.276246" xlink:href="#mec5f5f08f4" y="387.144242"/>
     <use style="fill:#ff0000;stroke:#ff0000;" x="894.406095" xlink:href="#mec5f5f08f4" y="371.963045"/>
     <use style="fill:#ff0000;stroke:#ff0000;" x="888.635046" xlink:href="#mec5f5f08f4" y="314.022292"/>
     <use style="fill:#ff0000;stroke:#ff0000;" x="738.077003" xlink:href="#mec5f5f08f4" y="569.190619"/>
     <use style="fill:#ff0000;stroke:#ff0000;" x="726.780792" xlink:href="#mec5f5f08f4" y="537.342835"/>
     <use style="fill:#ff0000;stroke:#ff0000;" x="794.196718" xlink:href="#mec5f5f08f4" y="545.610738"/>
     <use style="fill:#ff0000;stroke:#ff0000;" x="942.343106" xlink:href="#mec5f5f08f4" y="503.630154"/>
     <use style="fill:#ff0000;stroke:#ff0000;" x="698.658848" xlink:href="#mec5f5f08f4" y="442.737745"/>
     <use style="fill:#ff0000;stroke:#ff0000;" x="788.149114" xlink:href="#mec5f5f08f4" y="324.606324"/>
     <use style="fill:#ff0000;stroke:#ff0000;" x="849.005537" xlink:href="#mec5f5f08f4" y="307.505481"/>
     <use style="fill:#ff0000;stroke:#ff0000;" x="902.679147" xlink:href="#mec5f5f08f4" y="512.76408"/>
     <use style="fill:#ff0000;stroke:#ff0000;" x="732.919515" xlink:href="#mec5f5f08f4" y="377.00922"/>
     <use style="fill:#ff0000;stroke:#ff0000;" x="298.739898" xlink:href="#mec5f5f08f4" y="154.731443"/>
     <use style="fill:#ff0000;stroke:#ff0000;" x="905.046998" xlink:href="#mec5f5f08f4" y="574.590229"/>
     <use style="fill:#ff0000;stroke:#ff0000;" x="834.513805" xlink:href="#mec5f5f08f4" y="559.52"/>
     <use style="fill:#ff0000;stroke:#ff0000;" x="931.868132" xlink:href="#mec5f5f08f4" y="420.567055"/>
     <use style="fill:#ff0000;stroke:#ff0000;" x="833.812133" xlink:href="#mec5f5f08f4" y="594.622319"/>
     <use style="fill:#ff0000;stroke:#ff0000;" x="768.657036" xlink:href="#mec5f5f08f4" y="565.020359"/>
     <use style="fill:#ff0000;stroke:#ff0000;" x="885.542428" xlink:href="#mec5f5f08f4" y="418.068273"/>
     <use style="fill:#ff0000;stroke:#ff0000;" x="975.403261" xlink:href="#mec5f5f08f4" y="496.012952"/>
     <use style="fill:#ff0000;stroke:#ff0000;" x="766.407061" xlink:href="#mec5f5f08f4" y="361.19368"/>
     <use style="fill:#ff0000;stroke:#ff0000;" x="345.57204" xlink:href="#mec5f5f08f4" y="202.98027"/>
     <use style="fill:#ff0000;stroke:#ff0000;" x="985.337603" xlink:href="#mec5f5f08f4" y="459.998122"/>
     <use style="fill:#ff0000;stroke:#ff0000;" x="912.806971" xlink:href="#mec5f5f08f4" y="469.487568"/>
     <use style="fill:#ff0000;stroke:#ff0000;" x="196.829072" xlink:href="#mec5f5f08f4" y="245.440126"/>
     <use style="fill:#ff0000;stroke:#ff0000;" x="206.439911" xlink:href="#mec5f5f08f4" y="210.169035"/>
     <use style="fill:#ff0000;stroke:#ff0000;" x="195.462397" xlink:href="#mec5f5f08f4" y="282.016158"/>
     <use style="fill:#ff0000;stroke:#ff0000;" x="310.618455" xlink:href="#mec5f5f08f4" y="340.367176"/>
     <use style="fill:#ff0000;stroke:#ff0000;" x="565.219685" xlink:href="#mec5f5f08f4" y="359.957044"/>
     <use style="fill:#ff0000;stroke:#ff0000;" x="239.156928" xlink:href="#mec5f5f08f4" y="273.460879"/>
     <use style="fill:#ff0000;stroke:#ff0000;" x="273.668655" xlink:href="#mec5f5f08f4" y="363.277769"/>
     <use style="fill:#ff0000;stroke:#ff0000;" x="283.336748" xlink:href="#mec5f5f08f4" y="202.3745"/>
     <use style="fill:#ff0000;stroke:#ff0000;" x="261.558932" xlink:href="#mec5f5f08f4" y="161.527727"/>
     <use style="fill:#ff0000;stroke:#ff0000;" x="855.822826" xlink:href="#mec5f5f08f4" y="503.409815"/>
     <use style="fill:#ff0000;stroke:#ff0000;" x="979.471086" xlink:href="#mec5f5f08f4" y="421.384202"/>
     <use style="fill:#ff0000;stroke:#ff0000;" x="949.502679" xlink:href="#mec5f5f08f4" y="349.636778"/>
    </g>
   </g>
   <g id="PathCollection_3">
    <defs>
     <path d="M 0 15.811388 
C 4.193229 15.811388 8.215279 14.145401 11.18034 11.18034 
C 14.145401 8.215279 15.811388 4.193229 15.811388 0 
C 15.811388 -4.193229 14.145401 -8.215279 11.18034 -11.18034 
C 8.215279 -14.145401 4.193229 -15.811388 0 -15.811388 
C -4.193229 -15.811388 -8.215279 -14.145401 -11.18034 -11.18034 
C -14.145401 -8.215279 -15.811388 -4.193229 -15.811388 0 
C -15.811388 4.193229 -14.145401 8.215279 -11.18034 11.18034 
C -8.215279 14.145401 -4.193229 15.811388 0 15.811388 
z
" id="md283a8b8fa" style="stroke:#0000aa;"/>
    </defs>
    <g clip-path="url(#p56b76fb328)">
     <use style="fill:#0000aa;stroke:#0000aa;" x="823.555555" xlink:href="#md283a8b8fa" y="443.467522"/>
     <use style="fill:#0000aa;stroke:#0000aa;" x="327.196351" xlink:href="#md283a8b8fa" y="267.952614"/>
    </g>
   </g>
   <g id="PathCollection_4">
    <defs>
     <path d="M 0 12.247449 
C 3.248061 12.247449 6.363528 10.95698 8.660254 8.660254 
C 10.95698 6.363528 12.247449 3.248061 12.247449 0 
C 12.247449 -3.248061 10.95698 -6.363528 8.660254 -8.660254 
C 6.363528 -10.95698 3.248061 -12.247449 0 -12.247449 
C -3.248061 -12.247449 -6.363528 -10.95698 -8.660254 -8.660254 
C -10.95698 -6.363528 -12.247449 -3.248061 -12.247449 0 
C -12.247449 3.248061 -10.95698 6.363528 -8.660254 8.660254 
C -6.363528 10.95698 -3.248061 12.247449 0 12.247449 
z
" id="m2e48ac44b5" style="stroke:#0000ff;"/>
    </defs>
    <g clip-path="url(#p56b76fb328)">
     <use style="fill:#0000ff;stroke:#0000ff;" x="823.555555" xlink:href="#m2e48ac44b5" y="443.467522"/>
     <use style="fill:#0000ff;stroke:#0000ff;" x="634.96022" xlink:href="#m2e48ac44b5" y="204.34427"/>
     <use style="fill:#0000ff;stroke:#0000ff;" x="636.598842" xlink:href="#m2e48ac44b5" y="238.561445"/>
     <use style="fill:#0000ff;stroke:#0000ff;" x="610.113063" xlink:href="#m2e48ac44b5" y="221.733715"/>
     <use style="fill:#0000ff;stroke:#0000ff;" x="327.196351" xlink:href="#m2e48ac44b5" y="267.952614"/>
     <use style="fill:#0000ff;stroke:#0000ff;" x="709.631196" xlink:href="#m2e48ac44b5" y="123.060348"/>
     <use style="fill:#0000ff;stroke:#0000ff;" x="754.401714" xlink:href="#m2e48ac44b5" y="127.145005"/>
    </g>
   </g>
   <g id="text_1">
    <g clip-path="url(#p56b76fb328)">
     <!-- BR -->
     <defs>
      <path d="M 38.375 44.671875 
Q 42.828125 44.671875 45.109375 46.625 
Q 47.40625 48.578125 47.40625 52.390625 
Q 47.40625 56.15625 45.109375 58.125 
Q 42.828125 60.109375 38.375 60.109375 
L 27.984375 60.109375 
L 27.984375 44.671875 
z
M 39.015625 12.796875 
Q 44.671875 12.796875 47.53125 15.1875 
Q 50.390625 17.578125 50.390625 22.40625 
Q 50.390625 27.15625 47.5625 29.515625 
Q 44.734375 31.890625 39.015625 31.890625 
L 27.984375 31.890625 
L 27.984375 12.796875 
z
M 56.5 39.015625 
Q 62.546875 37.25 65.859375 32.515625 
Q 69.1875 27.78125 69.1875 20.90625 
Q 69.1875 10.359375 62.0625 5.171875 
Q 54.9375 0 40.375 0 
L 9.1875 0 
L 9.1875 72.90625 
L 37.40625 72.90625 
Q 52.59375 72.90625 59.40625 68.3125 
Q 66.21875 63.71875 66.21875 53.609375 
Q 66.21875 48.296875 63.71875 44.5625 
Q 61.234375 40.828125 56.5 39.015625 
z
" id="DejaVuSans-Bold-42"/>
      <path d="M 35.890625 40.578125 
Q 41.796875 40.578125 44.359375 42.765625 
Q 46.921875 44.96875 46.921875 50 
Q 46.921875 54.984375 44.359375 57.125 
Q 41.796875 59.28125 35.890625 59.28125 
L 27.984375 59.28125 
L 27.984375 40.578125 
z
M 27.984375 27.59375 
L 27.984375 0 
L 9.1875 0 
L 9.1875 72.90625 
L 37.890625 72.90625 
Q 52.296875 72.90625 59 68.0625 
Q 65.71875 63.234375 65.71875 52.78125 
Q 65.71875 45.5625 62.21875 40.921875 
Q 58.734375 36.28125 51.703125 34.078125 
Q 55.5625 33.203125 58.609375 30.09375 
Q 61.671875 27 64.796875 20.703125 
L 75 0 
L 54.984375 0 
L 46.09375 18.109375 
Q 43.40625 23.578125 40.640625 25.578125 
Q 37.890625 27.59375 33.296875 27.59375 
z
" id="DejaVuSans-Bold-52"/>
     </defs>
     <g style="fill:#ffffff;" transform="translate(812.830243 447.330647)scale(0.14 -0.14)">
      <use xlink:href="#DejaVuSans-Bold-42"/>
      <use x="76.220703" xlink:href="#DejaVuSans-Bold-52"/>
     </g>
    </g>
   </g>
   <g id="text_2">
    <g clip-path="url(#p56b76fb328)">
     <!-- BV -->
     <defs>
      <path d="M 0.484375 72.90625 
L 19.390625 72.90625 
L 38.71875 19.09375 
L 58.015625 72.90625 
L 76.90625 72.90625 
L 49.90625 0 
L 27.484375 0 
z
" id="DejaVuSans-Bold-56"/>
     </defs>
     <g style="fill:#ffffff;" transform="translate(624.211939 208.207395)scale(0.14 -0.14)">
      <use xlink:href="#DejaVuSans-Bold-42"/>
      <use x="76.158203" xlink:href="#DejaVuSans-Bold-56"/>
     </g>
    </g>
   </g>
   <g id="text_3">
    <g clip-path="url(#p56b76fb328)">
     <!-- ES -->
     <defs>
      <path d="M 9.1875 72.90625 
L 59.90625 72.90625 
L 59.90625 58.6875 
L 27.984375 58.6875 
L 27.984375 45.125 
L 58.015625 45.125 
L 58.015625 30.90625 
L 27.984375 30.90625 
L 27.984375 14.203125 
L 60.984375 14.203125 
L 60.984375 0 
L 9.1875 0 
z
" id="DejaVuSans-Bold-45"/>
      <path d="M 59.90625 70.609375 
L 59.90625 55.171875 
Q 53.90625 57.859375 48.1875 59.21875 
Q 42.484375 60.59375 37.40625 60.59375 
Q 30.671875 60.59375 27.4375 58.734375 
Q 24.21875 56.890625 24.21875 52.984375 
Q 24.21875 50.046875 26.390625 48.40625 
Q 28.5625 46.78125 34.28125 45.609375 
L 42.28125 44 
Q 54.4375 41.546875 59.5625 36.5625 
Q 64.703125 31.59375 64.703125 22.40625 
Q 64.703125 10.359375 57.546875 4.46875 
Q 50.390625 -1.421875 35.6875 -1.421875 
Q 28.765625 -1.421875 21.78125 -0.09375 
Q 14.796875 1.21875 7.8125 3.8125 
L 7.8125 19.671875 
Q 14.796875 15.96875 21.3125 14.078125 
Q 27.828125 12.203125 33.890625 12.203125 
Q 40.046875 12.203125 43.3125 14.25 
Q 46.578125 16.3125 46.578125 20.125 
Q 46.578125 23.53125 44.359375 25.390625 
Q 42.140625 27.25 35.5 28.71875 
L 28.21875 30.328125 
Q 17.28125 32.671875 12.21875 37.796875 
Q 7.171875 42.921875 7.171875 51.609375 
Q 7.171875 62.5 14.203125 68.359375 
Q 21.234375 74.21875 34.421875 74.21875 
Q 40.4375 74.21875 46.78125 73.3125 
Q 53.125 72.40625 59.90625 70.609375 
z
" id="DejaVuSans-Bold-53"/>
     </defs>
     <g style="fill:#ffffff;" transform="translate(626.775874 242.42457)scale(0.14 -0.14)">
      <use xlink:href="#DejaVuSans-Bold-45"/>
      <use x="68.310547" xlink:href="#DejaVuSans-Bold-53"/>
     </g>
    </g>
   </g>
   <g id="text_4">
    <g clip-path="url(#p56b76fb328)">
     <!-- PT -->
     <defs>
      <path d="M 9.1875 72.90625 
L 40.375 72.90625 
Q 54.296875 72.90625 61.734375 66.71875 
Q 69.1875 60.546875 69.1875 49.125 
Q 69.1875 37.640625 61.734375 31.46875 
Q 54.296875 25.296875 40.375 25.296875 
L 27.984375 25.296875 
L 27.984375 0 
L 9.1875 0 
z
M 27.984375 59.28125 
L 27.984375 38.921875 
L 38.375 38.921875 
Q 43.84375 38.921875 46.828125 41.578125 
Q 49.8125 44.234375 49.8125 49.125 
Q 49.8125 54 46.828125 56.640625 
Q 43.84375 59.28125 38.375 59.28125 
z
" id="DejaVuSans-Bold-50"/>
      <path d="M 0.484375 72.90625 
L 67.671875 72.90625 
L 67.671875 58.6875 
L 43.5 58.6875 
L 43.5 0 
L 24.703125 0 
L 24.703125 58.6875 
L 0.484375 58.6875 
z
" id="DejaVuSans-Bold-54"/>
     </defs>
     <g style="fill:#ffffff;" transform="translate(600.206969 225.59684)scale(0.14 -0.14)">
      <use xlink:href="#DejaVuSans-Bold-50"/>
      <use x="73.291016" xlink:href="#DejaVuSans-Bold-54"/>
     </g>
    </g>
   </g>
   <g id="text_5">
    <g clip-path="url(#p56b76fb328)">
     <!-- US -->
     <defs>
      <path d="M 9.1875 72.90625 
L 27.984375 72.90625 
L 27.984375 29.203125 
Q 27.984375 20.171875 30.9375 16.28125 
Q 33.890625 12.40625 40.578125 12.40625 
Q 47.3125 12.40625 50.265625 16.28125 
Q 53.21875 20.171875 53.21875 29.203125 
L 53.21875 72.90625 
L 72.015625 72.90625 
L 72.015625 29.203125 
Q 72.015625 13.71875 64.25 6.140625 
Q 56.5 -1.421875 40.578125 -1.421875 
Q 24.703125 -1.421875 16.9375 6.140625 
Q 9.1875 13.71875 9.1875 29.203125 
z
" id="DejaVuSans-Bold-55"/>
     </defs>
     <g style="fill:#ffffff;" transform="translate(316.471039 271.815739)scale(0.14 -0.14)">
      <use xlink:href="#DejaVuSans-Bold-55"/>
      <use x="81.201172" xlink:href="#DejaVuSans-Bold-53"/>
     </g>
    </g>
   </g>
   <g id="text_6">
    <g clip-path="url(#p56b76fb328)">
     <!-- BM -->
     <defs>
      <path d="M 9.1875 72.90625 
L 33.109375 72.90625 
L 49.703125 33.890625 
L 66.40625 72.90625 
L 90.28125 72.90625 
L 90.28125 0 
L 72.515625 0 
L 72.515625 53.328125 
L 55.71875 14.015625 
L 43.796875 14.015625 
L 27 53.328125 
L 27 0 
L 9.1875 0 
z
" id="DejaVuSans-Bold-4d"/>
     </defs>
     <g style="fill:#ffffff;" transform="translate(697.329789 126.923473)scale(0.14 -0.14)">
      <use xlink:href="#DejaVuSans-Bold-42"/>
      <use x="76.220703" xlink:href="#DejaVuSans-Bold-4d"/>
     </g>
    </g>
   </g>
   <g id="text_7">
    <g clip-path="url(#p56b76fb328)">
     <!-- TR -->
     <g style="fill:#ffffff;" transform="translate(744.236402 131.00813)scale(0.14 -0.14)">
      <use xlink:href="#DejaVuSans-Bold-54"/>
      <use x="68.212891" xlink:href="#DejaVuSans-Bold-52"/>
     </g>
    </g>
   </g>
   <g id="text_8">
    <g clip-path="url(#p56b76fb328)">
     <!-- Brasil -->
     <defs>
      <path d="M 19.671875 34.8125 
L 19.671875 8.109375 
L 35.5 8.109375 
Q 43.453125 8.109375 47.28125 11.40625 
Q 51.125 14.703125 51.125 21.484375 
Q 51.125 28.328125 47.28125 31.5625 
Q 43.453125 34.8125 35.5 34.8125 
z
M 19.671875 64.796875 
L 19.671875 42.828125 
L 34.28125 42.828125 
Q 41.5 42.828125 45.03125 45.53125 
Q 48.578125 48.25 48.578125 53.8125 
Q 48.578125 59.328125 45.03125 62.0625 
Q 41.5 64.796875 34.28125 64.796875 
z
M 9.8125 72.90625 
L 35.015625 72.90625 
Q 46.296875 72.90625 52.390625 68.21875 
Q 58.5 63.53125 58.5 54.890625 
Q 58.5 48.1875 55.375 44.234375 
Q 52.25 40.28125 46.1875 39.3125 
Q 53.46875 37.75 57.5 32.78125 
Q 61.53125 27.828125 61.53125 20.40625 
Q 61.53125 10.640625 54.890625 5.3125 
Q 48.25 0 35.984375 0 
L 9.8125 0 
z
" id="DejaVuSans-42"/>
      <path d="M 41.109375 46.296875 
Q 39.59375 47.171875 37.8125 47.578125 
Q 36.03125 48 33.890625 48 
Q 26.265625 48 22.1875 43.046875 
Q 18.109375 38.09375 18.109375 28.8125 
L 18.109375 0 
L 9.078125 0 
L 9.078125 54.6875 
L 18.109375 54.6875 
L 18.109375 46.1875 
Q 20.953125 51.171875 25.484375 53.578125 
Q 30.03125 56 36.53125 56 
Q 37.453125 56 38.578125 55.875 
Q 39.703125 55.765625 41.0625 55.515625 
z
" id="DejaVuSans-72"/>
      <path d="M 34.28125 27.484375 
Q 23.390625 27.484375 19.1875 25 
Q 14.984375 22.515625 14.984375 16.5 
Q 14.984375 11.71875 18.140625 8.90625 
Q 21.296875 6.109375 26.703125 6.109375 
Q 34.1875 6.109375 38.703125 11.40625 
Q 43.21875 16.703125 43.21875 25.484375 
L 43.21875 27.484375 
z
M 52.203125 31.203125 
L 52.203125 0 
L 43.21875 0 
L 43.21875 8.296875 
Q 40.140625 3.328125 35.546875 0.953125 
Q 30.953125 -1.421875 24.3125 -1.421875 
Q 15.921875 -1.421875 10.953125 3.296875 
Q 6 8.015625 6 15.921875 
Q 6 25.140625 12.171875 29.828125 
Q 18.359375 34.515625 30.609375 34.515625 
L 43.21875 34.515625 
L 43.21875 35.40625 
Q 43.21875 41.609375 39.140625 45 
Q 35.0625 48.390625 27.6875 48.390625 
Q 23 48.390625 18.546875 47.265625 
Q 14.109375 46.140625 10.015625 43.890625 
L 10.015625 52.203125 
Q 14.9375 54.109375 19.578125 55.046875 
Q 24.21875 56 28.609375 56 
Q 40.484375 56 46.34375 49.84375 
Q 52.203125 43.703125 52.203125 31.203125 
z
" id="DejaVuSans-61"/>
      <path d="M 44.28125 53.078125 
L 44.28125 44.578125 
Q 40.484375 46.53125 36.375 47.5 
Q 32.28125 48.484375 27.875 48.484375 
Q 21.1875 48.484375 17.84375 46.4375 
Q 14.5 44.390625 14.5 40.28125 
Q 14.5 37.15625 16.890625 35.375 
Q 19.28125 33.59375 26.515625 31.984375 
L 29.59375 31.296875 
Q 39.15625 29.25 43.1875 25.515625 
Q 47.21875 21.78125 47.21875 15.09375 
Q 47.21875 7.46875 41.1875 3.015625 
Q 35.15625 -1.421875 24.609375 -1.421875 
Q 20.21875 -1.421875 15.453125 -0.5625 
Q 10.6875 0.296875 5.421875 2 
L 5.421875 11.28125 
Q 10.40625 8.6875 15.234375 7.390625 
Q 20.0625 6.109375 24.8125 6.109375 
Q 31.15625 6.109375 34.5625 8.28125 
Q 37.984375 10.453125 37.984375 14.40625 
Q 37.984375 18.0625 35.515625 20.015625 
Q 33.0625 21.96875 24.703125 23.78125 
L 21.578125 24.515625 
Q 13.234375 26.265625 9.515625 29.90625 
Q 5.8125 33.546875 5.8125 39.890625 
Q 5.8125 47.609375 11.28125 51.796875 
Q 16.75 56 26.8125 56 
Q 31.78125 56 36.171875 55.265625 
Q 40.578125 54.546875 44.28125 53.078125 
z
" id="DejaVuSans-73"/>
      <path d="M 9.421875 54.6875 
L 18.40625 54.6875 
L 18.40625 0 
L 9.421875 0 
z
M 9.421875 75.984375 
L 18.40625 75.984375 
L 18.40625 64.59375 
L 9.421875 64.59375 
z
" id="DejaVuSans-69"/>
      <path d="M 9.421875 75.984375 
L 18.40625 75.984375 
L 18.40625 0 
L 9.421875 0 
z
" id="DejaVuSans-6c"/>
     </defs>
     <g style="fill:#775555;" transform="translate(530.391886 286.16324)scale(0.2 -0.2)">
      <use xlink:href="#DejaVuSans-42"/>
      <use x="68.603516" xlink:href="#DejaVuSans-72"/>
      <use x="109.716797" xlink:href="#DejaVuSans-61"/>
      <use x="170.996094" xlink:href="#DejaVuSans-73"/>
      <use x="223.095703" xlink:href="#DejaVuSans-69"/>
      <use x="250.878906" xlink:href="#DejaVuSans-6c"/>
     </g>
    </g>
   </g>
   <g id="text_9">
    <g clip-path="url(#p56b76fb328)">
     <!-- Brazil -->
     <defs>
      <path d="M 5.515625 54.6875 
L 48.1875 54.6875 
L 48.1875 46.484375 
L 14.40625 7.171875 
L 48.1875 7.171875 
L 48.1875 0 
L 4.296875 0 
L 4.296875 8.203125 
L 38.09375 47.515625 
L 5.515625 47.515625 
z
" id="DejaVuSans-7a"/>
     </defs>
     <g style="fill:#775555;" transform="translate(735.329493 246.996519)scale(0.2 -0.2)">
      <use xlink:href="#DejaVuSans-42"/>
      <use x="68.603516" xlink:href="#DejaVuSans-72"/>
      <use x="109.716797" xlink:href="#DejaVuSans-61"/>
      <use x="170.996094" xlink:href="#DejaVuSans-7a"/>
      <use x="223.486328" xlink:href="#DejaVuSans-69"/>
      <use x="251.269531" xlink:href="#DejaVuSans-6c"/>
     </g>
    </g>
   </g>
   <g id="text_10">
    <g clip-path="url(#p56b76fb328)">
     <!-- USA -->
     <defs>
      <path d="M 8.6875 72.90625 
L 18.609375 72.90625 
L 18.609375 28.609375 
Q 18.609375 16.890625 22.84375 11.734375 
Q 27.09375 6.59375 36.625 6.59375 
Q 46.09375 6.59375 50.34375 11.734375 
Q 54.59375 16.890625 54.59375 28.609375 
L 54.59375 72.90625 
L 64.5 72.90625 
L 64.5 27.390625 
Q 64.5 13.140625 57.4375 5.859375 
Q 50.390625 -1.421875 36.625 -1.421875 
Q 22.796875 -1.421875 15.734375 5.859375 
Q 8.6875 13.140625 8.6875 27.390625 
z
" id="DejaVuSans-55"/>
      <path d="M 53.515625 70.515625 
L 53.515625 60.890625 
Q 47.90625 63.578125 42.921875 64.890625 
Q 37.9375 66.21875 33.296875 66.21875 
Q 25.25 66.21875 20.875 63.09375 
Q 16.5 59.96875 16.5 54.203125 
Q 16.5 49.359375 19.40625 46.890625 
Q 22.3125 44.4375 30.421875 42.921875 
L 36.375 41.703125 
Q 47.40625 39.59375 52.65625 34.296875 
Q 57.90625 29 57.90625 20.125 
Q 57.90625 9.515625 50.796875 4.046875 
Q 43.703125 -1.421875 29.984375 -1.421875 
Q 24.8125 -1.421875 18.96875 -0.25 
Q 13.140625 0.921875 6.890625 3.21875 
L 6.890625 13.375 
Q 12.890625 10.015625 18.65625 8.296875 
Q 24.421875 6.59375 29.984375 6.59375 
Q 38.421875 6.59375 43.015625 9.90625 
Q 47.609375 13.234375 47.609375 19.390625 
Q 47.609375 24.75 44.3125 27.78125 
Q 41.015625 30.8125 33.5 32.328125 
L 27.484375 33.5 
Q 16.453125 35.6875 11.515625 40.375 
Q 6.59375 45.0625 6.59375 53.421875 
Q 6.59375 63.09375 13.40625 68.65625 
Q 20.21875 74.21875 32.171875 74.21875 
Q 37.3125 74.21875 42.625 73.28125 
Q 47.953125 72.359375 53.515625 70.515625 
z
" id="DejaVuSans-53"/>
      <path d="M 34.1875 63.1875 
L 20.796875 26.90625 
L 47.609375 26.90625 
z
M 28.609375 72.90625 
L 39.796875 72.90625 
L 67.578125 0 
L 57.328125 0 
L 50.6875 18.703125 
L 17.828125 18.703125 
L 11.1875 0 
L 0.78125 0 
z
" id="DejaVuSans-41"/>
     </defs>
     <g style="fill:#775555;" transform="translate(544.71031 393.428035)scale(0.2 -0.2)">
      <use xlink:href="#DejaVuSans-55"/>
      <use x="73.193359" xlink:href="#DejaVuSans-53"/>
      <use x="136.685547" xlink:href="#DejaVuSans-41"/>
     </g>
    </g>
   </g>
  </g>
 </g>
 <defs>
  <clipPath id="p56b76fb328">
   <rect height="543.6" width="892.8" x="144" y="86.4"/>
  </clipPath>
 </defs>
</svg>
