<?xml version="1.0" encoding="utf-8" standalone="no"?>
<!DOCTYPE svg PUBLIC "-//W3C//DTD SVG 1.1//EN"
  "http://www.w3.org/Graphics/SVG/1.1/DTD/svg11.dtd">
<!-- Created with matplotlib (http://matplotlib.org/) -->
<svg height="864pt" version="1.1" viewBox="0 0 1152 864" width="1152pt" xmlns="http://www.w3.org/2000/svg" xmlns:xlink="http://www.w3.org/1999/xlink">
 <defs>
  <style type="text/css">
*{stroke-linecap:butt;stroke-linejoin:round;}
  </style>
 </defs>
 <g id="figure_1">
  <g id="patch_1">
   <path d="M 0 864 
L 1152 864 
L 1152 0 
L 0 0 
z
" style="fill:#ffffff;"/>
  </g>
  <g id="axes_1">
   <g id="LineCollection_1">
    <path clip-path="url(#p42afa45128)" d="M 355.613853 212.904967 
L 283.822584 258.963803 
" style="fill:none;stroke:#555555;stroke-width:5;"/>
   </g>
   <g id="LineCollection_2">
    <path clip-path="url(#p42afa45128)" d="M 355.613853 212.904967 
L 387.183997 292.065226 
" style="fill:none;stroke:#aaaaaa;stroke-width:3.9;"/>
    <path clip-path="url(#p42afa45128)" d="M 355.613853 212.904967 
L 224.355629 213.604431 
" style="fill:none;stroke:#aaaaaa;stroke-width:2.2;"/>
    <path clip-path="url(#p42afa45128)" d="M 243.75535 306.155059 
L 163.404238 384.997338 
" style="fill:none;stroke:#aaaaaa;stroke-width:1.1;"/>
    <path clip-path="url(#p42afa45128)" d="M 243.75535 306.155059 
L 387.183997 292.065226 
" style="fill:none;stroke:#aaaaaa;stroke-width:2.6;"/>
    <path clip-path="url(#p42afa45128)" d="M 243.75535 306.155059 
L 283.822584 258.963803 
" style="fill:none;stroke:#aaaaaa;stroke-width:2.1;"/>
    <path clip-path="url(#p42afa45128)" d="M 243.75535 306.155059 
L 224.355629 213.604431 
" style="fill:none;stroke:#aaaaaa;stroke-width:2;"/>
   </g>
   <g id="PathCollection_1">
    <defs>
     <path d="M 0 11.18034 
C 2.965061 11.18034 5.80908 10.002309 7.905694 7.905694 
C 10.002309 5.80908 11.18034 2.965061 11.18034 0 
C 11.18034 -2.965061 10.002309 -5.80908 7.905694 -7.905694 
C 5.80908 -10.002309 2.965061 -11.18034 0 -11.18034 
C -2.965061 -11.18034 -5.80908 -10.002309 -7.905694 -7.905694 
C -10.002309 -5.80908 -11.18034 -2.965061 -11.18034 0 
C -11.18034 2.965061 -10.002309 5.80908 -7.905694 7.905694 
C -5.80908 10.002309 -2.965061 11.18034 0 11.18034 
z
" id="m90073f55a5" style="stroke:#ff0000;"/>
    </defs>
    <g clip-path="url(#p42afa45128)">
     <use style="fill:#ff0000;stroke:#ff0000;" x="224.355629" xlink:href="#m90073f55a5" y="213.604431"/>
     <use style="fill:#ff0000;stroke:#ff0000;" x="283.822584" xlink:href="#m90073f55a5" y="258.963803"/>
     <use style="fill:#ff0000;stroke:#ff0000;" x="387.183997" xlink:href="#m90073f55a5" y="292.065226"/>
     <use style="fill:#ff0000;stroke:#ff0000;" x="163.404238" xlink:href="#m90073f55a5" y="384.997338"/>
    </g>
   </g>
   <g id="PathCollection_2">
    <defs>
     <path d="M 0 11.18034 
C 2.965061 11.18034 5.80908 10.002309 7.905694 7.905694 
C 10.002309 5.80908 11.18034 2.965061 11.18034 0 
C 11.18034 -2.965061 10.002309 -5.80908 7.905694 -7.905694 
C 5.80908 -10.002309 2.965061 -11.18034 0 -11.18034 
C -2.965061 -11.18034 -5.80908 -10.002309 -7.905694 -7.905694 
C -10.002309 -5.80908 -11.18034 -2.965061 -11.18034 0 
C -11.18034 2.965061 -10.002309 5.80908 -7.905694 7.905694 
C -5.80908 10.002309 -2.965061 11.18034 0 11.18034 
z
" id="m3520cf8667" style="stroke:#0000ff;"/>
    </defs>
    <g clip-path="url(#p42afa45128)">
     <use style="fill:#0000ff;stroke:#0000ff;" x="355.613853" xlink:href="#m3520cf8667" y="212.904967"/>
     <use style="fill:#0000ff;stroke:#0000ff;" x="243.75535" xlink:href="#m3520cf8667" y="306.155059"/>
    </g>
   </g>
   <g id="text_1">
    <g clip-path="url(#p42afa45128)">
     <!-- KR -->
     <defs>
      <path d="M 9.1875 72.90625 
L 27.984375 72.90625 
L 27.984375 46.296875 
L 55.078125 72.90625 
L 76.90625 72.90625 
L 41.796875 38.375 
L 80.515625 0 
L 56.984375 0 
L 27.984375 28.71875 
L 27.984375 0 
L 9.1875 0 
z
" id="DejaVuSans-Bold-4b"/>
      <path d="M 35.890625 40.578125 
Q 41.796875 40.578125 44.359375 42.765625 
Q 46.921875 44.96875 46.921875 50 
Q 46.921875 54.984375 44.359375 57.125 
Q 41.796875 59.28125 35.890625 59.28125 
L 27.984375 59.28125 
L 27.984375 40.578125 
z
M 27.984375 27.59375 
L 27.984375 0 
L 9.1875 0 
L 9.1875 72.90625 
L 37.890625 72.90625 
Q 52.296875 72.90625 59 68.0625 
Q 65.71875 63.234375 65.71875 52.78125 
Q 65.71875 45.5625 62.21875 40.921875 
Q 58.734375 36.28125 51.703125 34.078125 
Q 55.5625 33.203125 58.609375 30.09375 
Q 61.671875 27 64.796875 20.703125 
L 75 0 
L 54.984375 0 
L 46.09375 18.109375 
Q 43.40625 23.578125 40.640625 25.578125 
Q 37.890625 27.59375 33.296875 27.59375 
z
" id="DejaVuSans-Bold-52"/>
     </defs>
     <g style="fill:#ffffff;" transform="translate(344.799947 216.768092)scale(0.14 -0.14)">
      <use xlink:href="#DejaVuSans-Bold-4b"/>
      <use x="77.490234" xlink:href="#DejaVuSans-Bold-52"/>
     </g>
    </g>
   </g>
   <g id="text_2">
    <g clip-path="url(#p42afa45128)">
     <!-- KP -->
     <defs>
      <path d="M 9.1875 72.90625 
L 40.375 72.90625 
Q 54.296875 72.90625 61.734375 66.71875 
Q 69.1875 60.546875 69.1875 49.125 
Q 69.1875 37.640625 61.734375 31.46875 
Q 54.296875 25.296875 40.375 25.296875 
L 27.984375 25.296875 
L 27.984375 0 
L 9.1875 0 
z
M 27.984375 59.28125 
L 27.984375 38.921875 
L 38.375 38.921875 
Q 43.84375 38.921875 46.828125 41.578125 
Q 49.8125 44.234375 49.8125 49.125 
Q 49.8125 54 46.828125 56.640625 
Q 43.84375 59.28125 38.375 59.28125 
z
" id="DejaVuSans-Bold-50"/>
     </defs>
     <g style="fill:#ffffff;" transform="translate(233.200663 310.018184)scale(0.14 -0.14)">
      <use xlink:href="#DejaVuSans-Bold-4b"/>
      <use x="77.490234" xlink:href="#DejaVuSans-Bold-50"/>
     </g>
    </g>
   </g>
   <g id="text_3">
    <g clip-path="url(#p42afa45128)">
     <!-- 1 -->
     <defs>
      <path d="M 11.71875 12.984375 
L 28.328125 12.984375 
L 28.328125 60.109375 
L 11.28125 56.59375 
L 11.28125 69.390625 
L 28.21875 72.90625 
L 46.09375 72.90625 
L 46.09375 12.984375 
L 62.703125 12.984375 
L 62.703125 0 
L 11.71875 0 
z
" id="DejaVuSans-Bold-31"/>
     </defs>
     <g style="fill:#ffffff;" transform="translate(219.485161 217.467556)scale(0.14 -0.14)">
      <use xlink:href="#DejaVuSans-Bold-31"/>
     </g>
    </g>
   </g>
   <g id="text_4">
    <g clip-path="url(#p42afa45128)">
     <!-- 2 -->
     <defs>
      <path d="M 28.8125 13.8125 
L 60.890625 13.8125 
L 60.890625 0 
L 7.90625 0 
L 7.90625 13.8125 
L 34.515625 37.3125 
Q 38.09375 40.53125 39.796875 43.609375 
Q 41.5 46.6875 41.5 50 
Q 41.5 55.125 38.0625 58.25 
Q 34.625 61.375 28.90625 61.375 
Q 24.515625 61.375 19.28125 59.5 
Q 14.0625 57.625 8.109375 53.90625 
L 8.109375 69.921875 
Q 14.453125 72.015625 20.65625 73.109375 
Q 26.859375 74.21875 32.8125 74.21875 
Q 45.90625 74.21875 53.15625 68.453125 
Q 60.40625 62.703125 60.40625 52.390625 
Q 60.40625 46.4375 57.328125 41.28125 
Q 54.25 36.140625 44.390625 27.484375 
z
" id="DejaVuSans-Bold-32"/>
     </defs>
     <g style="fill:#ffffff;" transform="translate(278.952115 262.826928)scale(0.14 -0.14)">
      <use xlink:href="#DejaVuSans-Bold-32"/>
     </g>
    </g>
   </g>
   <g id="text_5">
    <g clip-path="url(#p42afa45128)">
     <!-- 3 -->
     <defs>
      <path d="M 46.578125 39.3125 
Q 53.953125 37.40625 57.78125 32.6875 
Q 61.625 27.984375 61.625 20.703125 
Q 61.625 9.859375 53.3125 4.21875 
Q 45.015625 -1.421875 29.109375 -1.421875 
Q 23.484375 -1.421875 17.84375 -0.515625 
Q 12.203125 0.390625 6.6875 2.203125 
L 6.6875 16.703125 
Q 11.96875 14.0625 17.15625 12.71875 
Q 22.359375 11.375 27.390625 11.375 
Q 34.859375 11.375 38.84375 13.953125 
Q 42.828125 16.546875 42.828125 21.390625 
Q 42.828125 26.375 38.75 28.9375 
Q 34.671875 31.5 26.703125 31.5 
L 19.1875 31.5 
L 19.1875 43.609375 
L 27.09375 43.609375 
Q 34.1875 43.609375 37.640625 45.828125 
Q 41.109375 48.046875 41.109375 52.59375 
Q 41.109375 56.78125 37.734375 59.078125 
Q 34.375 61.375 28.21875 61.375 
Q 23.6875 61.375 19.046875 60.34375 
Q 14.40625 59.328125 9.8125 57.328125 
L 9.8125 71.09375 
Q 15.375 72.65625 20.84375 73.4375 
Q 26.3125 74.21875 31.59375 74.21875 
Q 45.796875 74.21875 52.84375 69.546875 
Q 59.90625 64.890625 59.90625 55.515625 
Q 59.90625 49.125 56.53125 45.046875 
Q 53.171875 40.96875 46.578125 39.3125 
z
" id="DejaVuSans-Bold-33"/>
     </defs>
     <g style="fill:#ffffff;" transform="translate(382.313529 295.928351)scale(0.14 -0.14)">
      <use xlink:href="#DejaVuSans-Bold-33"/>
     </g>
    </g>
   </g>
   <g id="text_6">
    <g clip-path="url(#p42afa45128)">
     <!-- 4 -->
     <defs>
      <path d="M 36.8125 57.421875 
L 16.21875 26.90625 
L 36.8125 26.90625 
z
M 33.6875 72.90625 
L 54.59375 72.90625 
L 54.59375 26.90625 
L 64.984375 26.90625 
L 64.984375 13.28125 
L 54.59375 13.28125 
L 54.59375 0 
L 36.8125 0 
L 36.8125 13.28125 
L 4.5 13.28125 
L 4.5 29.390625 
z
" id="DejaVuSans-Bold-34"/>
     </defs>
     <g style="fill:#ffffff;" transform="translate(158.533769 388.860463)scale(0.14 -0.14)">
      <use xlink:href="#DejaVuSans-Bold-34"/>
     </g>
    </g>
   </g>
   <g id="legend_1">
    <g id="patch_2">
     <path d="M 156.6 520.271591 
L 371.635312 520.271591 
Q 375.235312 520.271591 375.235312 516.671591 
L 375.235312 412.789091 
Q 375.235312 409.189091 371.635312 409.189091 
L 156.6 409.189091 
Q 153 409.189091 153 412.789091 
L 153 516.671591 
Q 153 520.271591 156.6 520.271591 
z
" style="fill:#ffffff;opacity:0.8;stroke:#cccccc;stroke-linejoin:miter;"/>
    </g>
    <g id="patch_3">
     <path d="M 166.95 435.106278 
C 169.957403 435.106278 172.842036 433.911424 174.968591 431.784869 
C 177.095146 429.658314 178.29 426.773682 178.29 423.766278 
C 178.29 420.758875 177.095146 417.874243 174.968591 415.747688 
C 172.842036 413.621132 169.957403 412.426278 166.95 412.426278 
C 163.942597 412.426278 161.057964 413.621132 158.931409 415.747688 
C 156.804854 417.874243 155.61 420.758875 155.61 423.766278 
C 155.61 426.773682 156.804854 429.658314 158.931409 431.784869 
C 161.057964 433.911424 163.942597 435.106278 166.95 435.106278 
z
" style="fill:#ff0000;stroke:#ff0000;stroke-linejoin:miter;"/>
    </g>
    <g id="text_7">
     <!-- 1 -->
     <g style="fill:#ffffff;" transform="translate(162.079531 427.629403)scale(0.14 -0.14)">
      <use xlink:href="#DejaVuSans-Bold-31"/>
     </g>
    </g>
    <g id="text_8">
     <!-- South Korea -->
     <defs>
      <path d="M 59.90625 70.609375 
L 59.90625 55.171875 
Q 53.90625 57.859375 48.1875 59.21875 
Q 42.484375 60.59375 37.40625 60.59375 
Q 30.671875 60.59375 27.4375 58.734375 
Q 24.21875 56.890625 24.21875 52.984375 
Q 24.21875 50.046875 26.390625 48.40625 
Q 28.5625 46.78125 34.28125 45.609375 
L 42.28125 44 
Q 54.4375 41.546875 59.5625 36.5625 
Q 64.703125 31.59375 64.703125 22.40625 
Q 64.703125 10.359375 57.546875 4.46875 
Q 50.390625 -1.421875 35.6875 -1.421875 
Q 28.765625 -1.421875 21.78125 -0.09375 
Q 14.796875 1.21875 7.8125 3.8125 
L 7.8125 19.671875 
Q 14.796875 15.96875 21.3125 14.078125 
Q 27.828125 12.203125 33.890625 12.203125 
Q 40.046875 12.203125 43.3125 14.25 
Q 46.578125 16.3125 46.578125 20.125 
Q 46.578125 23.53125 44.359375 25.390625 
Q 42.140625 27.25 35.5 28.71875 
L 28.21875 30.328125 
Q 17.28125 32.671875 12.21875 37.796875 
Q 7.171875 42.921875 7.171875 51.609375 
Q 7.171875 62.5 14.203125 68.359375 
Q 21.234375 74.21875 34.421875 74.21875 
Q 40.4375 74.21875 46.78125 73.3125 
Q 53.125 72.40625 59.90625 70.609375 
z
" id="DejaVuSans-Bold-53"/>
      <path d="M 34.421875 43.5 
Q 28.609375 43.5 25.5625 39.328125 
Q 22.515625 35.15625 22.515625 27.296875 
Q 22.515625 19.4375 25.5625 15.25 
Q 28.609375 11.078125 34.421875 11.078125 
Q 40.140625 11.078125 43.15625 15.25 
Q 46.1875 19.4375 46.1875 27.296875 
Q 46.1875 35.15625 43.15625 39.328125 
Q 40.140625 43.5 34.421875 43.5 
z
M 34.421875 56 
Q 48.53125 56 56.46875 48.375 
Q 64.40625 40.765625 64.40625 27.296875 
Q 64.40625 13.8125 56.46875 6.1875 
Q 48.53125 -1.421875 34.421875 -1.421875 
Q 20.265625 -1.421875 12.28125 6.1875 
Q 4.296875 13.8125 4.296875 27.296875 
Q 4.296875 40.765625 12.28125 48.375 
Q 20.265625 56 34.421875 56 
z
" id="DejaVuSans-Bold-6f"/>
      <path d="M 7.8125 21.296875 
L 7.8125 54.6875 
L 25.390625 54.6875 
L 25.390625 49.21875 
Q 25.390625 44.78125 25.34375 38.0625 
Q 25.296875 31.34375 25.296875 29.109375 
Q 25.296875 22.515625 25.640625 19.609375 
Q 25.984375 16.703125 26.8125 15.375 
Q 27.875 13.671875 29.609375 12.734375 
Q 31.34375 11.8125 33.59375 11.8125 
Q 39.0625 11.8125 42.1875 16.015625 
Q 45.3125 20.21875 45.3125 27.6875 
L 45.3125 54.6875 
L 62.796875 54.6875 
L 62.796875 0 
L 45.3125 0 
L 45.3125 7.90625 
Q 41.359375 3.125 36.9375 0.84375 
Q 32.515625 -1.421875 27.203125 -1.421875 
Q 17.71875 -1.421875 12.765625 4.390625 
Q 7.8125 10.203125 7.8125 21.296875 
z
" id="DejaVuSans-Bold-75"/>
      <path d="M 27.484375 70.21875 
L 27.484375 54.6875 
L 45.515625 54.6875 
L 45.515625 42.1875 
L 27.484375 42.1875 
L 27.484375 19 
Q 27.484375 15.1875 29 13.84375 
Q 30.515625 12.5 35.015625 12.5 
L 44 12.5 
L 44 0 
L 29 0 
Q 18.65625 0 14.328125 4.3125 
Q 10.015625 8.640625 10.015625 19 
L 10.015625 42.1875 
L 1.3125 42.1875 
L 1.3125 54.6875 
L 10.015625 54.6875 
L 10.015625 70.21875 
z
" id="DejaVuSans-Bold-74"/>
      <path d="M 63.375 33.296875 
L 63.375 0 
L 45.796875 0 
L 45.796875 5.421875 
L 45.796875 25.390625 
Q 45.796875 32.5625 45.484375 35.25 
Q 45.171875 37.9375 44.390625 39.203125 
Q 43.359375 40.921875 41.59375 41.875 
Q 39.84375 42.828125 37.59375 42.828125 
Q 32.125 42.828125 29 38.59375 
Q 25.875 34.375 25.875 26.90625 
L 25.875 0 
L 8.40625 0 
L 8.40625 75.984375 
L 25.875 75.984375 
L 25.875 46.6875 
Q 29.828125 51.46875 34.265625 53.734375 
Q 38.71875 56 44.09375 56 
Q 53.5625 56 58.46875 50.1875 
Q 63.375 44.390625 63.375 33.296875 
z
" id="DejaVuSans-Bold-68"/>
      <path id="DejaVuSans-Bold-20"/>
      <path d="M 49.03125 39.796875 
Q 46.734375 40.875 44.453125 41.375 
Q 42.1875 41.890625 39.890625 41.890625 
Q 33.15625 41.890625 29.515625 37.5625 
Q 25.875 33.25 25.875 25.203125 
L 25.875 0 
L 8.40625 0 
L 8.40625 54.6875 
L 25.875 54.6875 
L 25.875 45.703125 
Q 29.25 51.078125 33.609375 53.53125 
Q 37.984375 56 44.09375 56 
Q 44.96875 56 45.984375 55.921875 
Q 47.015625 55.859375 48.96875 55.609375 
z
" id="DejaVuSans-Bold-72"/>
      <path d="M 62.984375 27.484375 
L 62.984375 22.515625 
L 22.125 22.515625 
Q 22.75 16.359375 26.5625 13.28125 
Q 30.375 10.203125 37.203125 10.203125 
Q 42.71875 10.203125 48.5 11.84375 
Q 54.296875 13.484375 60.40625 16.796875 
L 60.40625 3.328125 
Q 54.203125 0.984375 48 -0.21875 
Q 41.796875 -1.421875 35.59375 -1.421875 
Q 20.75 -1.421875 12.515625 6.125 
Q 4.296875 13.671875 4.296875 27.296875 
Q 4.296875 40.671875 12.375 48.328125 
Q 20.453125 56 34.625 56 
Q 47.515625 56 55.25 48.234375 
Q 62.984375 40.484375 62.984375 27.484375 
z
M 45.015625 33.296875 
Q 45.015625 38.28125 42.109375 41.328125 
Q 39.203125 44.390625 34.515625 44.390625 
Q 29.4375 44.390625 26.265625 41.53125 
Q 23.09375 38.671875 22.3125 33.296875 
z
" id="DejaVuSans-Bold-65"/>
      <path d="M 32.90625 24.609375 
Q 27.4375 24.609375 24.671875 22.75 
Q 21.921875 20.90625 21.921875 17.28125 
Q 21.921875 13.96875 24.140625 12.078125 
Q 26.375 10.203125 30.328125 10.203125 
Q 35.25 10.203125 38.625 13.734375 
Q 42 17.28125 42 22.609375 
L 42 24.609375 
z
M 59.625 31.203125 
L 59.625 0 
L 42 0 
L 42 8.109375 
Q 38.484375 3.125 34.078125 0.84375 
Q 29.6875 -1.421875 23.390625 -1.421875 
Q 14.890625 -1.421875 9.59375 3.53125 
Q 4.296875 8.5 4.296875 16.40625 
Q 4.296875 26.03125 10.90625 30.515625 
Q 17.53125 35.015625 31.6875 35.015625 
L 42 35.015625 
L 42 36.375 
Q 42 40.53125 38.71875 42.453125 
Q 35.453125 44.390625 28.515625 44.390625 
Q 22.90625 44.390625 18.0625 43.265625 
Q 13.234375 42.140625 9.078125 39.890625 
L 9.078125 53.21875 
Q 14.703125 54.59375 20.359375 55.296875 
Q 26.03125 56 31.6875 56 
Q 46.484375 56 53.046875 50.171875 
Q 59.625 44.34375 59.625 31.203125 
z
" id="DejaVuSans-Bold-61"/>
     </defs>
     <g style="fill:#0099aa;" transform="translate(188.1 430.066278)scale(0.18 -0.18)">
      <use xlink:href="#DejaVuSans-Bold-53"/>
      <use x="72.021484" xlink:href="#DejaVuSans-Bold-6f"/>
      <use x="140.722656" xlink:href="#DejaVuSans-Bold-75"/>
      <use x="211.914062" xlink:href="#DejaVuSans-Bold-74"/>
      <use x="259.716797" xlink:href="#DejaVuSans-Bold-68"/>
      <use x="330.908203" xlink:href="#DejaVuSans-Bold-20"/>
      <use x="365.722656" xlink:href="#DejaVuSans-Bold-4b"/>
      <use x="443.197266" xlink:href="#DejaVuSans-Bold-6f"/>
      <use x="511.898438" xlink:href="#DejaVuSans-Bold-72"/>
      <use x="561.214844" xlink:href="#DejaVuSans-Bold-65"/>
      <use x="629.037109" xlink:href="#DejaVuSans-Bold-61"/>
     </g>
    </g>
    <g id="patch_4">
     <path d="M 166.95 461.526903 
C 169.957403 461.526903 172.842036 460.332049 174.968591 458.205494 
C 177.095146 456.078939 178.29 453.194307 178.29 450.186903 
C 178.29 447.1795 177.095146 444.294868 174.968591 442.168313 
C 172.842036 440.041757 169.957403 438.846903 166.95 438.846903 
C 163.942597 438.846903 161.057964 440.041757 158.931409 442.168313 
C 156.804854 444.294868 155.61 447.1795 155.61 450.186903 
C 155.61 453.194307 156.804854 456.078939 158.931409 458.205494 
C 161.057964 460.332049 163.942597 461.526903 166.95 461.526903 
z
" style="fill:#ff0000;stroke:#ff0000;stroke-linejoin:miter;"/>
    </g>
    <g id="text_9">
     <!-- 2 -->
     <g style="fill:#ffffff;" transform="translate(162.079531 454.050028)scale(0.14 -0.14)">
      <use xlink:href="#DejaVuSans-Bold-32"/>
     </g>
    </g>
    <g id="text_10">
     <!-- Republic of Korea -->
     <defs>
      <path d="M 25.875 7.90625 
L 25.875 -20.796875 
L 8.40625 -20.796875 
L 8.40625 54.6875 
L 25.875 54.6875 
L 25.875 46.6875 
Q 29.5 51.46875 33.890625 53.734375 
Q 38.28125 56 44 56 
Q 54.109375 56 60.59375 47.96875 
Q 67.09375 39.9375 67.09375 27.296875 
Q 67.09375 14.65625 60.59375 6.609375 
Q 54.109375 -1.421875 44 -1.421875 
Q 38.28125 -1.421875 33.890625 0.84375 
Q 29.5 3.125 25.875 7.90625 
z
M 37.5 43.3125 
Q 31.890625 43.3125 28.875 39.1875 
Q 25.875 35.0625 25.875 27.296875 
Q 25.875 19.53125 28.875 15.40625 
Q 31.890625 11.28125 37.5 11.28125 
Q 43.109375 11.28125 46.0625 15.375 
Q 49.03125 19.484375 49.03125 27.296875 
Q 49.03125 35.109375 46.0625 39.203125 
Q 43.109375 43.3125 37.5 43.3125 
z
" id="DejaVuSans-Bold-70"/>
      <path d="M 37.5 11.28125 
Q 43.109375 11.28125 46.0625 15.375 
Q 49.03125 19.484375 49.03125 27.296875 
Q 49.03125 35.109375 46.0625 39.203125 
Q 43.109375 43.3125 37.5 43.3125 
Q 31.890625 43.3125 28.875 39.1875 
Q 25.875 35.0625 25.875 27.296875 
Q 25.875 19.53125 28.875 15.40625 
Q 31.890625 11.28125 37.5 11.28125 
z
M 25.875 46.6875 
Q 29.5 51.46875 33.890625 53.734375 
Q 38.28125 56 44 56 
Q 54.109375 56 60.59375 47.96875 
Q 67.09375 39.9375 67.09375 27.296875 
Q 67.09375 14.65625 60.59375 6.609375 
Q 54.109375 -1.421875 44 -1.421875 
Q 38.28125 -1.421875 33.890625 0.84375 
Q 29.5 3.125 25.875 7.90625 
L 25.875 0 
L 8.40625 0 
L 8.40625 75.984375 
L 25.875 75.984375 
z
" id="DejaVuSans-Bold-62"/>
      <path d="M 8.40625 75.984375 
L 25.875 75.984375 
L 25.875 0 
L 8.40625 0 
z
" id="DejaVuSans-Bold-6c"/>
      <path d="M 8.40625 54.6875 
L 25.875 54.6875 
L 25.875 0 
L 8.40625 0 
z
M 8.40625 75.984375 
L 25.875 75.984375 
L 25.875 61.71875 
L 8.40625 61.71875 
z
" id="DejaVuSans-Bold-69"/>
      <path d="M 52.59375 52.984375 
L 52.59375 38.71875 
Q 49.03125 41.15625 45.4375 42.328125 
Q 41.84375 43.5 37.984375 43.5 
Q 30.671875 43.5 26.59375 39.234375 
Q 22.515625 34.96875 22.515625 27.296875 
Q 22.515625 19.625 26.59375 15.34375 
Q 30.671875 11.078125 37.984375 11.078125 
Q 42.09375 11.078125 45.78125 12.296875 
Q 49.46875 13.53125 52.59375 15.921875 
L 52.59375 1.609375 
Q 48.484375 0.09375 44.265625 -0.65625 
Q 40.046875 -1.421875 35.796875 -1.421875 
Q 21 -1.421875 12.640625 6.171875 
Q 4.296875 13.765625 4.296875 27.296875 
Q 4.296875 40.828125 12.640625 48.40625 
Q 21 56 35.796875 56 
Q 40.09375 56 44.265625 55.25 
Q 48.4375 54.5 52.59375 52.984375 
z
" id="DejaVuSans-Bold-63"/>
      <path d="M 44.390625 75.984375 
L 44.390625 64.5 
L 34.71875 64.5 
Q 31 64.5 29.53125 63.15625 
Q 28.078125 61.8125 28.078125 58.5 
L 28.078125 54.6875 
L 43.015625 54.6875 
L 43.015625 42.1875 
L 28.078125 42.1875 
L 28.078125 0 
L 10.59375 0 
L 10.59375 42.1875 
L 1.90625 42.1875 
L 1.90625 54.6875 
L 10.59375 54.6875 
L 10.59375 58.5 
Q 10.59375 67.4375 15.578125 71.703125 
Q 20.5625 75.984375 31 75.984375 
z
" id="DejaVuSans-Bold-66"/>
     </defs>
     <g style="fill:#0099aa;" transform="translate(188.1 456.486903)scale(0.18 -0.18)">
      <use xlink:href="#DejaVuSans-Bold-52"/>
      <use x="77.001953" xlink:href="#DejaVuSans-Bold-65"/>
      <use x="144.824219" xlink:href="#DejaVuSans-Bold-70"/>
      <use x="216.40625" xlink:href="#DejaVuSans-Bold-75"/>
      <use x="287.597656" xlink:href="#DejaVuSans-Bold-62"/>
      <use x="359.179688" xlink:href="#DejaVuSans-Bold-6c"/>
      <use x="393.457031" xlink:href="#DejaVuSans-Bold-69"/>
      <use x="427.734375" xlink:href="#DejaVuSans-Bold-63"/>
      <use x="487.011719" xlink:href="#DejaVuSans-Bold-20"/>
      <use x="521.826172" xlink:href="#DejaVuSans-Bold-6f"/>
      <use x="590.527344" xlink:href="#DejaVuSans-Bold-66"/>
      <use x="634.033203" xlink:href="#DejaVuSans-Bold-20"/>
      <use x="668.847656" xlink:href="#DejaVuSans-Bold-4b"/>
      <use x="746.322266" xlink:href="#DejaVuSans-Bold-6f"/>
      <use x="815.023438" xlink:href="#DejaVuSans-Bold-72"/>
      <use x="864.339844" xlink:href="#DejaVuSans-Bold-65"/>
      <use x="932.162109" xlink:href="#DejaVuSans-Bold-61"/>
     </g>
    </g>
    <g id="patch_5">
     <path d="M 166.95 487.947528 
C 169.957403 487.947528 172.842036 486.752674 174.968591 484.626119 
C 177.095146 482.499564 178.29 479.614932 178.29 476.607528 
C 178.29 473.600125 177.095146 470.715493 174.968591 468.588938 
C 172.842036 466.462382 169.957403 465.267528 166.95 465.267528 
C 163.942597 465.267528 161.057964 466.462382 158.931409 468.588938 
C 156.804854 470.715493 155.61 473.600125 155.61 476.607528 
C 155.61 479.614932 156.804854 482.499564 158.931409 484.626119 
C 161.057964 486.752674 163.942597 487.947528 166.95 487.947528 
z
" style="fill:#ff0000;stroke:#ff0000;stroke-linejoin:miter;"/>
    </g>
    <g id="text_11">
     <!-- 3 -->
     <g style="fill:#ffffff;" transform="translate(162.079531 480.470653)scale(0.14 -0.14)">
      <use xlink:href="#DejaVuSans-Bold-33"/>
     </g>
    </g>
    <g id="text_12">
     <!-- Korea -->
     <g style="fill:#0099aa;" transform="translate(188.1 482.907528)scale(0.18 -0.18)">
      <use xlink:href="#DejaVuSans-Bold-4b"/>
      <use x="77.474609" xlink:href="#DejaVuSans-Bold-6f"/>
      <use x="146.175781" xlink:href="#DejaVuSans-Bold-72"/>
      <use x="195.492188" xlink:href="#DejaVuSans-Bold-65"/>
      <use x="263.314453" xlink:href="#DejaVuSans-Bold-61"/>
     </g>
    </g>
    <g id="patch_6">
     <path d="M 166.95 514.368153 
C 169.957403 514.368153 172.842036 513.173299 174.968591 511.046744 
C 177.095146 508.920189 178.29 506.035557 178.29 503.028153 
C 178.29 500.02075 177.095146 497.136118 174.968591 495.009563 
C 172.842036 492.883007 169.957403 491.688153 166.95 491.688153 
C 163.942597 491.688153 161.057964 492.883007 158.931409 495.009563 
C 156.804854 497.136118 155.61 500.02075 155.61 503.028153 
C 155.61 506.035557 156.804854 508.920189 158.931409 511.046744 
C 161.057964 513.173299 163.942597 514.368153 166.95 514.368153 
z
" style="fill:#ff0000;stroke:#ff0000;stroke-linejoin:miter;"/>
    </g>
    <g id="text_13">
     <!-- 4 -->
     <g style="fill:#ffffff;" transform="translate(162.079531 506.891278)scale(0.14 -0.14)">
      <use xlink:href="#DejaVuSans-Bold-34"/>
     </g>
    </g>
    <g id="text_14">
     <!-- Coreia do Sul -->
     <defs>
      <path d="M 67 4 
Q 61.8125 1.3125 56.203125 -0.046875 
Q 50.59375 -1.421875 44.484375 -1.421875 
Q 26.265625 -1.421875 15.625 8.765625 
Q 4.984375 18.953125 4.984375 36.375 
Q 4.984375 53.859375 15.625 64.03125 
Q 26.265625 74.21875 44.484375 74.21875 
Q 50.59375 74.21875 56.203125 72.84375 
Q 61.8125 71.484375 67 68.796875 
L 67 53.71875 
Q 61.765625 57.28125 56.6875 58.9375 
Q 51.609375 60.59375 46 60.59375 
Q 35.9375 60.59375 30.171875 54.140625 
Q 24.421875 47.703125 24.421875 36.375 
Q 24.421875 25.09375 30.171875 18.640625 
Q 35.9375 12.203125 46 12.203125 
Q 51.609375 12.203125 56.6875 13.859375 
Q 61.765625 15.53125 67 19.09375 
z
" id="DejaVuSans-Bold-43"/>
      <path d="M 45.609375 46.6875 
L 45.609375 75.984375 
L 63.1875 75.984375 
L 63.1875 0 
L 45.609375 0 
L 45.609375 7.90625 
Q 42 3.078125 37.640625 0.828125 
Q 33.296875 -1.421875 27.59375 -1.421875 
Q 17.484375 -1.421875 10.984375 6.609375 
Q 4.5 14.65625 4.5 27.296875 
Q 4.5 39.9375 10.984375 47.96875 
Q 17.484375 56 27.59375 56 
Q 33.25 56 37.625 53.734375 
Q 42 51.46875 45.609375 46.6875 
z
M 34.078125 11.28125 
Q 39.703125 11.28125 42.65625 15.375 
Q 45.609375 19.484375 45.609375 27.296875 
Q 45.609375 35.109375 42.65625 39.203125 
Q 39.703125 43.3125 34.078125 43.3125 
Q 28.515625 43.3125 25.5625 39.203125 
Q 22.609375 35.109375 22.609375 27.296875 
Q 22.609375 19.484375 25.5625 15.375 
Q 28.515625 11.28125 34.078125 11.28125 
z
" id="DejaVuSans-Bold-64"/>
     </defs>
     <g style="fill:#0099aa;" transform="translate(188.1 509.328153)scale(0.18 -0.18)">
      <use xlink:href="#DejaVuSans-Bold-43"/>
      <use x="73.388672" xlink:href="#DejaVuSans-Bold-6f"/>
      <use x="142.089844" xlink:href="#DejaVuSans-Bold-72"/>
      <use x="191.40625" xlink:href="#DejaVuSans-Bold-65"/>
      <use x="259.228516" xlink:href="#DejaVuSans-Bold-69"/>
      <use x="293.505859" xlink:href="#DejaVuSans-Bold-61"/>
      <use x="360.986328" xlink:href="#DejaVuSans-Bold-20"/>
      <use x="395.800781" xlink:href="#DejaVuSans-Bold-64"/>
      <use x="467.382812" xlink:href="#DejaVuSans-Bold-6f"/>
      <use x="536.083984" xlink:href="#DejaVuSans-Bold-20"/>
      <use x="570.898438" xlink:href="#DejaVuSans-Bold-53"/>
      <use x="642.919922" xlink:href="#DejaVuSans-Bold-75"/>
      <use x="714.111328" xlink:href="#DejaVuSans-Bold-6c"/>
     </g>
    </g>
   </g>
  </g>
  <g id="axes_2">
   <g id="LineCollection_3">
    <path clip-path="url(#pcf7c393840)" d="M 699.078155 380.199784 
L 634.735396 328.338676 
" style="fill:none;stroke:#aaaaaa;stroke-width:1.1;"/>
    <path clip-path="url(#pcf7c393840)" d="M 483.910284 206.768611 
L 551.054703 260.889864 
" style="fill:none;stroke:#aaaaaa;stroke-width:1.3;"/>
    <path clip-path="url(#pcf7c393840)" d="M 634.735396 328.338676 
L 551.054703 260.889864 
" style="fill:none;stroke:#aaaaaa;stroke-width:1.1;"/>
   </g>
   <g id="PathCollection_3">
    <g clip-path="url(#pcf7c393840)">
     <use style="fill:#ff0000;stroke:#ff0000;" x="483.910284" xlink:href="#m90073f55a5" y="206.768611"/>
     <use style="fill:#ff0000;stroke:#ff0000;" x="634.735396" xlink:href="#m90073f55a5" y="328.338676"/>
    </g>
   </g>
   <g id="PathCollection_4">
    <g clip-path="url(#pcf7c393840)">
     <use style="fill:#0000ff;stroke:#0000ff;" x="699.078155" xlink:href="#m3520cf8667" y="380.199784"/>
     <use style="fill:#0000ff;stroke:#0000ff;" x="551.054703" xlink:href="#m3520cf8667" y="260.889864"/>
    </g>
   </g>
   <g id="text_15">
    <g clip-path="url(#pcf7c393840)">
     <!-- CS -->
     <g style="fill:#ffffff;" transform="translate(688.898624 384.062909)scale(0.14 -0.14)">
      <use xlink:href="#DejaVuSans-Bold-43"/>
      <use x="73.404297" xlink:href="#DejaVuSans-Bold-53"/>
     </g>
    </g>
   </g>
   <g id="text_16">
    <g clip-path="url(#pcf7c393840)">
     <!-- CZ -->
     <defs>
      <path d="M 5.609375 72.90625 
L 66.890625 72.90625 
L 66.890625 61.53125 
L 27.78125 14.203125 
L 68.015625 14.203125 
L 68.015625 0 
L 4.5 0 
L 4.5 11.375 
L 43.609375 58.6875 
L 5.609375 58.6875 
z
" id="DejaVuSans-Bold-5a"/>
     </defs>
     <g style="fill:#ffffff;" transform="translate(540.841266 264.752989)scale(0.14 -0.14)">
      <use xlink:href="#DejaVuSans-Bold-43"/>
      <use x="73.388672" xlink:href="#DejaVuSans-Bold-5a"/>
     </g>
    </g>
   </g>
   <g id="text_17">
    <g clip-path="url(#pcf7c393840)">
     <!-- 5 -->
     <defs>
      <path d="M 10.59375 72.90625 
L 57.328125 72.90625 
L 57.328125 59.078125 
L 25.59375 59.078125 
L 25.59375 47.796875 
Q 27.734375 48.390625 29.90625 48.703125 
Q 32.078125 49.03125 34.421875 49.03125 
Q 47.75 49.03125 55.171875 42.359375 
Q 62.59375 35.6875 62.59375 23.78125 
Q 62.59375 11.96875 54.515625 5.265625 
Q 46.4375 -1.421875 32.078125 -1.421875 
Q 25.875 -1.421875 19.796875 -0.21875 
Q 13.71875 0.984375 7.71875 3.421875 
L 7.71875 18.21875 
Q 13.671875 14.796875 19.015625 13.078125 
Q 24.359375 11.375 29.109375 11.375 
Q 35.9375 11.375 39.859375 14.71875 
Q 43.796875 18.0625 43.796875 23.78125 
Q 43.796875 29.546875 39.859375 32.859375 
Q 35.9375 36.1875 29.109375 36.1875 
Q 25.046875 36.1875 20.453125 35.125 
Q 15.875 34.078125 10.59375 31.890625 
z
" id="DejaVuSans-Bold-35"/>
     </defs>
     <g style="fill:#ffffff;" transform="translate(479.039815 210.631736)scale(0.14 -0.14)">
      <use xlink:href="#DejaVuSans-Bold-35"/>
     </g>
    </g>
   </g>
   <g id="text_18">
    <g clip-path="url(#pcf7c393840)">
     <!-- 6 -->
     <defs>
      <path d="M 36.1875 35.984375 
Q 31.25 35.984375 28.78125 32.78125 
Q 26.3125 29.59375 26.3125 23.1875 
Q 26.3125 16.796875 28.78125 13.59375 
Q 31.25 10.40625 36.1875 10.40625 
Q 41.15625 10.40625 43.625 13.59375 
Q 46.09375 16.796875 46.09375 23.1875 
Q 46.09375 29.59375 43.625 32.78125 
Q 41.15625 35.984375 36.1875 35.984375 
z
M 59.421875 71 
L 59.421875 57.515625 
Q 54.78125 59.71875 50.671875 60.765625 
Q 46.578125 61.8125 42.671875 61.8125 
Q 34.28125 61.8125 29.59375 57.140625 
Q 24.90625 52.484375 24.125 43.3125 
Q 27.34375 45.703125 31.09375 46.890625 
Q 34.859375 48.09375 39.3125 48.09375 
Q 50.484375 48.09375 57.34375 41.546875 
Q 64.203125 35.015625 64.203125 24.421875 
Q 64.203125 12.703125 56.53125 5.640625 
Q 48.875 -1.421875 35.984375 -1.421875 
Q 21.78125 -1.421875 13.984375 8.171875 
Q 6.203125 17.78125 6.203125 35.40625 
Q 6.203125 53.46875 15.3125 63.796875 
Q 24.421875 74.125 40.28125 74.125 
Q 45.3125 74.125 50.046875 73.34375 
Q 54.78125 72.5625 59.421875 71 
z
" id="DejaVuSans-Bold-36"/>
     </defs>
     <g style="fill:#ffffff;" transform="translate(629.864928 332.201801)scale(0.14 -0.14)">
      <use xlink:href="#DejaVuSans-Bold-36"/>
     </g>
    </g>
   </g>
   <g id="legend_2">
    <g id="patch_7">
     <path d="M 471.705882 467.430341 
L 661.971507 467.430341 
Q 665.571507 467.430341 665.571507 463.830341 
L 665.571507 412.789091 
Q 665.571507 409.189091 661.971507 409.189091 
L 471.705882 409.189091 
Q 468.105882 409.189091 468.105882 412.789091 
L 468.105882 463.830341 
Q 468.105882 467.430341 471.705882 467.430341 
z
" style="fill:#ffffff;opacity:0.8;stroke:#cccccc;stroke-linejoin:miter;"/>
    </g>
    <g id="patch_8">
     <path d="M 482.055882 435.106278 
C 485.063286 435.106278 487.947918 433.911424 490.074473 431.784869 
C 492.201028 429.658314 493.395882 426.773682 493.395882 423.766278 
C 493.395882 420.758875 492.201028 417.874243 490.074473 415.747688 
C 487.947918 413.621132 485.063286 412.426278 482.055882 412.426278 
C 479.048479 412.426278 476.163847 413.621132 474.037291 415.747688 
C 471.910736 417.874243 470.715882 420.758875 470.715882 423.766278 
C 470.715882 426.773682 471.910736 429.658314 474.037291 431.784869 
C 476.163847 433.911424 479.048479 435.106278 482.055882 435.106278 
z
" style="fill:#ff0000;stroke:#ff0000;stroke-linejoin:miter;"/>
    </g>
    <g id="text_19">
     <!-- 5 -->
     <g style="fill:#ffffff;" transform="translate(477.185414 427.629403)scale(0.14 -0.14)">
      <use xlink:href="#DejaVuSans-Bold-35"/>
     </g>
    </g>
    <g id="text_20">
     <!-- Czech Republic -->
     <defs>
      <path d="M 5.71875 54.6875 
L 53.421875 54.6875 
L 53.421875 42.484375 
L 24.609375 12.5 
L 53.421875 12.5 
L 53.421875 0 
L 4.5 0 
L 4.5 12.203125 
L 33.296875 42.1875 
L 5.71875 42.1875 
z
" id="DejaVuSans-Bold-7a"/>
     </defs>
     <g style="fill:#0099aa;" transform="translate(503.205882 430.066278)scale(0.18 -0.18)">
      <use xlink:href="#DejaVuSans-Bold-43"/>
      <use x="73.388672" xlink:href="#DejaVuSans-Bold-7a"/>
      <use x="131.591797" xlink:href="#DejaVuSans-Bold-65"/>
      <use x="199.414062" xlink:href="#DejaVuSans-Bold-63"/>
      <use x="258.691406" xlink:href="#DejaVuSans-Bold-68"/>
      <use x="329.882812" xlink:href="#DejaVuSans-Bold-20"/>
      <use x="364.697266" xlink:href="#DejaVuSans-Bold-52"/>
      <use x="441.699219" xlink:href="#DejaVuSans-Bold-65"/>
      <use x="509.521484" xlink:href="#DejaVuSans-Bold-70"/>
      <use x="581.103516" xlink:href="#DejaVuSans-Bold-75"/>
      <use x="652.294922" xlink:href="#DejaVuSans-Bold-62"/>
      <use x="723.876953" xlink:href="#DejaVuSans-Bold-6c"/>
      <use x="758.154297" xlink:href="#DejaVuSans-Bold-69"/>
      <use x="792.431641" xlink:href="#DejaVuSans-Bold-63"/>
     </g>
    </g>
    <g id="patch_9">
     <path d="M 482.055882 461.526903 
C 485.063286 461.526903 487.947918 460.332049 490.074473 458.205494 
C 492.201028 456.078939 493.395882 453.194307 493.395882 450.186903 
C 493.395882 447.1795 492.201028 444.294868 490.074473 442.168313 
C 487.947918 440.041757 485.063286 438.846903 482.055882 438.846903 
C 479.048479 438.846903 476.163847 440.041757 474.037291 442.168313 
C 471.910736 444.294868 470.715882 447.1795 470.715882 450.186903 
C 470.715882 453.194307 471.910736 456.078939 474.037291 458.205494 
C 476.163847 460.332049 479.048479 461.526903 482.055882 461.526903 
z
" style="fill:#ff0000;stroke:#ff0000;stroke-linejoin:miter;"/>
    </g>
    <g id="text_21">
     <!-- 6 -->
     <g style="fill:#ffffff;" transform="translate(477.185414 454.050028)scale(0.14 -0.14)">
      <use xlink:href="#DejaVuSans-Bold-36"/>
     </g>
    </g>
    <g id="text_22">
     <!-- Czechoslovakia -->
     <defs>
      <path d="M 51.125 52.984375 
L 51.125 39.703125 
Q 45.515625 42.046875 40.28125 43.21875 
Q 35.0625 44.390625 30.421875 44.390625 
Q 25.4375 44.390625 23.015625 43.140625 
Q 20.609375 41.890625 20.609375 39.3125 
Q 20.609375 37.203125 22.4375 36.078125 
Q 24.265625 34.96875 29 34.421875 
L 32.078125 33.984375 
Q 45.515625 32.28125 50.140625 28.375 
Q 54.78125 24.46875 54.78125 16.109375 
Q 54.78125 7.375 48.328125 2.96875 
Q 41.890625 -1.421875 29.109375 -1.421875 
Q 23.6875 -1.421875 17.890625 -0.5625 
Q 12.109375 0.296875 6 2 
L 6 15.28125 
Q 11.234375 12.75 16.71875 11.46875 
Q 22.21875 10.203125 27.875 10.203125 
Q 33.015625 10.203125 35.59375 11.609375 
Q 38.1875 13.03125 38.1875 15.828125 
Q 38.1875 18.171875 36.40625 19.3125 
Q 34.625 20.453125 29.296875 21.09375 
L 26.21875 21.484375 
Q 14.546875 22.953125 9.859375 26.90625 
Q 5.171875 30.859375 5.171875 38.921875 
Q 5.171875 47.609375 11.125 51.796875 
Q 17.09375 56 29.390625 56 
Q 34.234375 56 39.546875 55.265625 
Q 44.875 54.546875 51.125 52.984375 
z
" id="DejaVuSans-Bold-73"/>
      <path d="M 1.515625 54.6875 
L 19 54.6875 
L 32.625 16.890625 
L 46.1875 54.6875 
L 63.71875 54.6875 
L 42.1875 0 
L 23 0 
z
" id="DejaVuSans-Bold-76"/>
      <path d="M 8.40625 75.984375 
L 25.875 75.984375 
L 25.875 34.625 
L 46 54.6875 
L 66.3125 54.6875 
L 39.59375 29.59375 
L 68.40625 0 
L 47.21875 0 
L 25.875 22.796875 
L 25.875 0 
L 8.40625 0 
z
" id="DejaVuSans-Bold-6b"/>
     </defs>
     <g style="fill:#0099aa;" transform="translate(503.205882 456.486903)scale(0.18 -0.18)">
      <use xlink:href="#DejaVuSans-Bold-43"/>
      <use x="73.388672" xlink:href="#DejaVuSans-Bold-7a"/>
      <use x="131.591797" xlink:href="#DejaVuSans-Bold-65"/>
      <use x="199.414062" xlink:href="#DejaVuSans-Bold-63"/>
      <use x="258.691406" xlink:href="#DejaVuSans-Bold-68"/>
      <use x="329.882812" xlink:href="#DejaVuSans-Bold-6f"/>
      <use x="398.583984" xlink:href="#DejaVuSans-Bold-73"/>
      <use x="458.105469" xlink:href="#DejaVuSans-Bold-6c"/>
      <use x="492.382812" xlink:href="#DejaVuSans-Bold-6f"/>
      <use x="561.083984" xlink:href="#DejaVuSans-Bold-76"/>
      <use x="626.269531" xlink:href="#DejaVuSans-Bold-61"/>
      <use x="693.75" xlink:href="#DejaVuSans-Bold-6b"/>
      <use x="760.253906" xlink:href="#DejaVuSans-Bold-69"/>
      <use x="794.53125" xlink:href="#DejaVuSans-Bold-61"/>
     </g>
    </g>
   </g>
  </g>
  <g id="axes_3">
   <g id="LineCollection_4">
    <path clip-path="url(#p1e8a1b9057)" d="M 847.669379 349.151278 
L 791.042797 370.513589 
" style="fill:none;stroke:#555555;stroke-width:5;"/>
    <path clip-path="url(#p1e8a1b9057)" d="M 965.148471 259.071112 
L 906.242972 306.496313 
" style="fill:none;stroke:#555555;stroke-width:5;"/>
   </g>
   <g id="LineCollection_5">
    <path clip-path="url(#p1e8a1b9057)" d="M 847.669379 349.151278 
L 906.242972 306.496313 
" style="fill:none;stroke:#aaaaaa;stroke-width:1.2;"/>
    <path clip-path="url(#p1e8a1b9057)" d="M 965.148471 259.071112 
L 1019.968967 222.30823 
" style="fill:none;stroke:#aaaaaa;stroke-width:1.2;"/>
   </g>
   <g id="PathCollection_5">
    <g clip-path="url(#p1e8a1b9057)">
     <use style="fill:#ff0000;stroke:#ff0000;" x="791.042797" xlink:href="#m90073f55a5" y="370.513589"/>
     <use style="fill:#ff0000;stroke:#ff0000;" x="906.242972" xlink:href="#m90073f55a5" y="306.496313"/>
     <use style="fill:#ff0000;stroke:#ff0000;" x="1019.968967" xlink:href="#m90073f55a5" y="222.30823"/>
    </g>
   </g>
   <g id="PathCollection_6">
    <g clip-path="url(#p1e8a1b9057)">
     <use style="fill:#0000ff;stroke:#0000ff;" x="847.669379" xlink:href="#m3520cf8667" y="349.151278"/>
     <use style="fill:#0000ff;stroke:#0000ff;" x="965.148471" xlink:href="#m3520cf8667" y="259.071112"/>
    </g>
   </g>
   <g id="text_23">
    <g clip-path="url(#p1e8a1b9057)">
     <!-- EG -->
     <defs>
      <path d="M 9.1875 72.90625 
L 59.90625 72.90625 
L 59.90625 58.6875 
L 27.984375 58.6875 
L 27.984375 45.125 
L 58.015625 45.125 
L 58.015625 30.90625 
L 27.984375 30.90625 
L 27.984375 14.203125 
L 60.984375 14.203125 
L 60.984375 0 
L 9.1875 0 
z
" id="DejaVuSans-Bold-45"/>
      <path d="M 74.703125 5.421875 
Q 67.671875 2 60.109375 0.28125 
Q 52.546875 -1.421875 44.484375 -1.421875 
Q 26.265625 -1.421875 15.625 8.765625 
Q 4.984375 18.953125 4.984375 36.375 
Q 4.984375 54 15.8125 64.109375 
Q 26.65625 74.21875 45.515625 74.21875 
Q 52.78125 74.21875 59.4375 72.84375 
Q 66.109375 71.484375 72.015625 68.796875 
L 72.015625 53.71875 
Q 65.921875 57.171875 59.890625 58.875 
Q 53.859375 60.59375 47.796875 60.59375 
Q 36.578125 60.59375 30.5 54.3125 
Q 24.421875 48.046875 24.421875 36.375 
Q 24.421875 24.8125 30.28125 18.5 
Q 36.140625 12.203125 46.921875 12.203125 
Q 49.859375 12.203125 52.375 12.5625 
Q 54.890625 12.9375 56.890625 13.71875 
L 56.890625 27.875 
L 45.40625 27.875 
L 45.40625 40.484375 
L 74.703125 40.484375 
z
" id="DejaVuSans-Bold-47"/>
     </defs>
     <g style="fill:#ffffff;" transform="translate(837.142036 353.014403)scale(0.14 -0.14)">
      <use xlink:href="#DejaVuSans-Bold-45"/>
      <use x="68.310547" xlink:href="#DejaVuSans-Bold-47"/>
     </g>
    </g>
   </g>
   <g id="text_24">
    <g clip-path="url(#p1e8a1b9057)">
     <!-- SA -->
     <defs>
      <path d="M 53.421875 13.28125 
L 24.03125 13.28125 
L 19.390625 0 
L 0.484375 0 
L 27.484375 72.90625 
L 49.90625 72.90625 
L 76.90625 0 
L 58.015625 0 
z
M 28.71875 26.8125 
L 48.6875 26.8125 
L 38.71875 55.8125 
z
" id="DejaVuSans-Bold-41"/>
     </defs>
     <g style="fill:#ffffff;" transform="translate(954.690033 262.934237)scale(0.14 -0.14)">
      <use xlink:href="#DejaVuSans-Bold-53"/>
      <use x="72.021484" xlink:href="#DejaVuSans-Bold-41"/>
     </g>
    </g>
   </g>
   <g id="text_25">
    <g clip-path="url(#p1e8a1b9057)">
     <!-- 7 -->
     <defs>
      <path d="M 6.6875 72.90625 
L 61.625 72.90625 
L 61.625 62.3125 
L 33.203125 0 
L 14.890625 0 
L 41.796875 59.078125 
L 6.6875 59.078125 
z
" id="DejaVuSans-Bold-37"/>
     </defs>
     <g style="fill:#ffffff;" transform="translate(786.172329 374.376714)scale(0.14 -0.14)">
      <use xlink:href="#DejaVuSans-Bold-37"/>
     </g>
    </g>
   </g>
   <g id="text_26">
    <g clip-path="url(#p1e8a1b9057)">
     <!-- 8 -->
     <defs>
      <path d="M 34.8125 32.625 
Q 29.546875 32.625 26.703125 29.734375 
Q 23.875 26.859375 23.875 21.484375 
Q 23.875 16.109375 26.703125 13.25 
Q 29.546875 10.40625 34.8125 10.40625 
Q 40.046875 10.40625 42.828125 13.25 
Q 45.609375 16.109375 45.609375 21.484375 
Q 45.609375 26.90625 42.828125 29.765625 
Q 40.046875 32.625 34.8125 32.625 
z
M 21.09375 38.8125 
Q 14.453125 40.828125 11.078125 44.96875 
Q 7.71875 49.125 7.71875 55.328125 
Q 7.71875 64.546875 14.59375 69.375 
Q 21.484375 74.21875 34.8125 74.21875 
Q 48.046875 74.21875 54.921875 69.40625 
Q 61.8125 64.59375 61.8125 55.328125 
Q 61.8125 49.125 58.421875 44.96875 
Q 55.03125 40.828125 48.390625 38.8125 
Q 55.8125 36.765625 59.59375 32.15625 
Q 63.375 27.546875 63.375 20.515625 
Q 63.375 9.671875 56.171875 4.125 
Q 48.96875 -1.421875 34.8125 -1.421875 
Q 20.609375 -1.421875 13.359375 4.125 
Q 6.109375 9.671875 6.109375 20.515625 
Q 6.109375 27.546875 9.890625 32.15625 
Q 13.671875 36.765625 21.09375 38.8125 
z
M 25.484375 53.421875 
Q 25.484375 49.078125 27.90625 46.734375 
Q 30.328125 44.390625 34.8125 44.390625 
Q 39.203125 44.390625 41.59375 46.734375 
Q 44 49.078125 44 53.421875 
Q 44 57.765625 41.59375 60.078125 
Q 39.203125 62.40625 34.8125 62.40625 
Q 30.328125 62.40625 27.90625 60.0625 
Q 25.484375 57.71875 25.484375 53.421875 
z
" id="DejaVuSans-Bold-38"/>
     </defs>
     <g style="fill:#ffffff;" transform="translate(901.372503 310.359438)scale(0.14 -0.14)">
      <use xlink:href="#DejaVuSans-Bold-38"/>
     </g>
    </g>
   </g>
   <g id="text_27">
    <g clip-path="url(#p1e8a1b9057)">
     <!-- 9 -->
     <defs>
      <path d="M 10.015625 1.609375 
L 10.015625 15.09375 
Q 14.5 12.984375 18.59375 11.9375 
Q 22.703125 10.890625 26.703125 10.890625 
Q 35.109375 10.890625 39.796875 15.546875 
Q 44.484375 20.21875 45.3125 29.390625 
Q 42 26.953125 38.234375 25.734375 
Q 34.46875 24.515625 30.078125 24.515625 
Q 18.890625 24.515625 12.03125 31.03125 
Q 5.171875 37.546875 5.171875 48.1875 
Q 5.171875 59.96875 12.8125 67.046875 
Q 20.453125 74.125 33.296875 74.125 
Q 47.5625 74.125 55.375 64.5 
Q 63.1875 54.890625 63.1875 37.3125 
Q 63.1875 19.234375 54.046875 8.90625 
Q 44.921875 -1.421875 29 -1.421875 
Q 23.875 -1.421875 19.1875 -0.65625 
Q 14.5 0.09375 10.015625 1.609375 
z
M 33.203125 36.71875 
Q 38.140625 36.71875 40.625 39.90625 
Q 43.109375 43.109375 43.109375 49.515625 
Q 43.109375 55.859375 40.625 59.078125 
Q 38.140625 62.3125 33.203125 62.3125 
Q 28.265625 62.3125 25.78125 59.078125 
Q 23.296875 55.859375 23.296875 49.515625 
Q 23.296875 43.109375 25.78125 39.90625 
Q 28.265625 36.71875 33.203125 36.71875 
z
" id="DejaVuSans-Bold-39"/>
     </defs>
     <g style="fill:#ffffff;" transform="translate(1015.098499 226.171355)scale(0.14 -0.14)">
      <use xlink:href="#DejaVuSans-Bold-39"/>
     </g>
    </g>
   </g>
   <g id="legend_3">
    <g id="patch_10">
     <path d="M 786.811765 494.132216 
L 1073.863952 494.132216 
Q 1077.463952 494.132216 1077.463952 490.532216 
L 1077.463952 412.789091 
Q 1077.463952 409.189091 1073.863952 409.189091 
L 786.811765 409.189091 
Q 783.211765 409.189091 783.211765 412.789091 
L 783.211765 490.532216 
Q 783.211765 494.132216 786.811765 494.132216 
z
" style="fill:#ffffff;opacity:0.8;stroke:#cccccc;stroke-linejoin:miter;"/>
    </g>
    <g id="patch_11">
     <path d="M 797.161765 435.106278 
C 800.169168 435.106278 803.0538 433.911424 805.180356 431.784869 
C 807.306911 429.658314 808.501765 426.773682 808.501765 423.766278 
C 808.501765 420.758875 807.306911 417.874243 805.180356 415.747688 
C 803.0538 413.621132 800.169168 412.426278 797.161765 412.426278 
C 794.154362 412.426278 791.269729 413.621132 789.143174 415.747688 
C 787.016619 417.874243 785.821765 420.758875 785.821765 423.766278 
C 785.821765 426.773682 787.016619 429.658314 789.143174 431.784869 
C 791.269729 433.911424 794.154362 435.106278 797.161765 435.106278 
z
" style="fill:#ff0000;stroke:#ff0000;stroke-linejoin:miter;"/>
    </g>
    <g id="text_28">
     <!-- 7 -->
     <g style="fill:#ffffff;" transform="translate(792.291296 427.629403)scale(0.14 -0.14)">
      <use xlink:href="#DejaVuSans-Bold-37"/>
     </g>
    </g>
    <g id="text_29">
     <!-- Egypt -->
     <defs>
      <path d="M 45.609375 9.28125 
Q 42 4.5 37.640625 2.25 
Q 33.296875 0 27.59375 0 
Q 17.578125 0 11.03125 7.875 
Q 4.5 15.765625 4.5 27.984375 
Q 4.5 40.234375 11.03125 48.0625 
Q 17.578125 55.90625 27.59375 55.90625 
Q 33.296875 55.90625 37.640625 53.65625 
Q 42 51.421875 45.609375 46.578125 
L 45.609375 54.6875 
L 63.1875 54.6875 
L 63.1875 5.515625 
Q 63.1875 -7.671875 54.859375 -14.625 
Q 46.53125 -21.578125 30.71875 -21.578125 
Q 25.59375 -21.578125 20.796875 -20.796875 
Q 16.015625 -20.015625 11.1875 -18.40625 
L 11.1875 -4.78125 
Q 15.765625 -7.421875 20.15625 -8.71875 
Q 24.5625 -10.015625 29 -10.015625 
Q 37.59375 -10.015625 41.59375 -6.25 
Q 45.609375 -2.484375 45.609375 5.515625 
z
M 34.078125 43.3125 
Q 28.65625 43.3125 25.625 39.296875 
Q 22.609375 35.296875 22.609375 27.984375 
Q 22.609375 20.453125 25.53125 16.578125 
Q 28.46875 12.703125 34.078125 12.703125 
Q 39.546875 12.703125 42.578125 16.703125 
Q 45.609375 20.703125 45.609375 27.984375 
Q 45.609375 35.296875 42.578125 39.296875 
Q 39.546875 43.3125 34.078125 43.3125 
z
" id="DejaVuSans-Bold-67"/>
      <path d="M 1.21875 54.6875 
L 18.703125 54.6875 
L 33.40625 17.578125 
L 45.90625 54.6875 
L 63.375 54.6875 
L 40.375 -5.171875 
Q 36.921875 -14.3125 32.296875 -17.9375 
Q 27.6875 -21.578125 20.125 -21.578125 
L 10.015625 -21.578125 
L 10.015625 -10.109375 
L 15.484375 -10.109375 
Q 19.921875 -10.109375 21.9375 -8.6875 
Q 23.96875 -7.28125 25.09375 -3.609375 
L 25.59375 -2.09375 
z
" id="DejaVuSans-Bold-79"/>
     </defs>
     <g style="fill:#0099aa;" transform="translate(818.311765 430.066278)scale(0.18 -0.18)">
      <use xlink:href="#DejaVuSans-Bold-45"/>
      <use x="68.310547" xlink:href="#DejaVuSans-Bold-67"/>
      <use x="139.892578" xlink:href="#DejaVuSans-Bold-79"/>
      <use x="205.078125" xlink:href="#DejaVuSans-Bold-70"/>
      <use x="276.660156" xlink:href="#DejaVuSans-Bold-74"/>
     </g>
    </g>
    <g id="patch_12">
     <path d="M 797.161765 461.667528 
C 800.169168 461.667528 803.0538 460.472674 805.180356 458.346119 
C 807.306911 456.219564 808.501765 453.334932 808.501765 450.327528 
C 808.501765 447.320125 807.306911 444.435493 805.180356 442.308938 
C 803.0538 440.182382 800.169168 438.987528 797.161765 438.987528 
C 794.154362 438.987528 791.269729 440.182382 789.143174 442.308938 
C 787.016619 444.435493 785.821765 447.320125 785.821765 450.327528 
C 785.821765 453.334932 787.016619 456.219564 789.143174 458.346119 
C 791.269729 460.472674 794.154362 461.667528 797.161765 461.667528 
z
" style="fill:#ff0000;stroke:#ff0000;stroke-linejoin:miter;"/>
    </g>
    <g id="text_30">
     <!-- 8 -->
     <g style="fill:#ffffff;" transform="translate(792.291296 454.190653)scale(0.14 -0.14)">
      <use xlink:href="#DejaVuSans-Bold-38"/>
     </g>
    </g>
    <g id="text_31">
     <!-- Saudi Arabia -->
     <g style="fill:#0099aa;" transform="translate(818.311765 456.627528)scale(0.18 -0.18)">
      <use xlink:href="#DejaVuSans-Bold-53"/>
      <use x="72.021484" xlink:href="#DejaVuSans-Bold-61"/>
      <use x="139.501953" xlink:href="#DejaVuSans-Bold-75"/>
      <use x="210.693359" xlink:href="#DejaVuSans-Bold-64"/>
      <use x="282.275391" xlink:href="#DejaVuSans-Bold-69"/>
      <use x="316.552734" xlink:href="#DejaVuSans-Bold-20"/>
      <use x="351.367188" xlink:href="#DejaVuSans-Bold-41"/>
      <use x="428.759766" xlink:href="#DejaVuSans-Bold-72"/>
      <use x="478.076172" xlink:href="#DejaVuSans-Bold-61"/>
      <use x="545.556641" xlink:href="#DejaVuSans-Bold-62"/>
      <use x="617.138672" xlink:href="#DejaVuSans-Bold-69"/>
      <use x="651.416016" xlink:href="#DejaVuSans-Bold-61"/>
     </g>
    </g>
    <g id="patch_13">
     <path d="M 797.161765 488.088153 
C 800.169168 488.088153 803.0538 486.893299 805.180356 484.766744 
C 807.306911 482.640189 808.501765 479.755557 808.501765 476.748153 
C 808.501765 473.74075 807.306911 470.856118 805.180356 468.729563 
C 803.0538 466.603007 800.169168 465.408153 797.161765 465.408153 
C 794.154362 465.408153 791.269729 466.603007 789.143174 468.729563 
C 787.016619 470.856118 785.821765 473.74075 785.821765 476.748153 
C 785.821765 479.755557 787.016619 482.640189 789.143174 484.766744 
C 791.269729 486.893299 794.154362 488.088153 797.161765 488.088153 
z
" style="fill:#ff0000;stroke:#ff0000;stroke-linejoin:miter;"/>
    </g>
    <g id="text_32">
     <!-- 9 -->
     <g style="fill:#ffffff;" transform="translate(792.291296 480.611278)scale(0.14 -0.14)">
      <use xlink:href="#DejaVuSans-Bold-39"/>
     </g>
    </g>
    <g id="text_33">
     <!-- Kingdom of Saudi Arabia -->
     <defs>
      <path d="M 63.375 33.296875 
L 63.375 0 
L 45.796875 0 
L 45.796875 5.421875 
L 45.796875 25.484375 
Q 45.796875 32.5625 45.484375 35.25 
Q 45.171875 37.9375 44.390625 39.203125 
Q 43.359375 40.921875 41.59375 41.875 
Q 39.84375 42.828125 37.59375 42.828125 
Q 32.125 42.828125 29 38.59375 
Q 25.875 34.375 25.875 26.90625 
L 25.875 0 
L 8.40625 0 
L 8.40625 54.6875 
L 25.875 54.6875 
L 25.875 46.6875 
Q 29.828125 51.46875 34.265625 53.734375 
Q 38.71875 56 44.09375 56 
Q 53.5625 56 58.46875 50.1875 
Q 63.375 44.390625 63.375 33.296875 
z
" id="DejaVuSans-Bold-6e"/>
      <path d="M 59.078125 45.609375 
Q 62.40625 50.6875 66.96875 53.34375 
Q 71.53125 56 77 56 
Q 86.421875 56 91.359375 50.1875 
Q 96.296875 44.390625 96.296875 33.296875 
L 96.296875 0 
L 78.71875 0 
L 78.71875 28.515625 
Q 78.765625 29.15625 78.78125 29.828125 
Q 78.8125 30.515625 78.8125 31.78125 
Q 78.8125 37.59375 77.09375 40.203125 
Q 75.390625 42.828125 71.578125 42.828125 
Q 66.609375 42.828125 63.890625 38.71875 
Q 61.1875 34.625 61.078125 26.859375 
L 61.078125 0 
L 43.5 0 
L 43.5 28.515625 
Q 43.5 37.59375 41.9375 40.203125 
Q 40.375 42.828125 36.375 42.828125 
Q 31.34375 42.828125 28.609375 38.703125 
Q 25.875 34.578125 25.875 26.90625 
L 25.875 0 
L 8.296875 0 
L 8.296875 54.6875 
L 25.875 54.6875 
L 25.875 46.6875 
Q 29.109375 51.3125 33.28125 53.65625 
Q 37.453125 56 42.484375 56 
Q 48.140625 56 52.484375 53.265625 
Q 56.84375 50.53125 59.078125 45.609375 
z
" id="DejaVuSans-Bold-6d"/>
     </defs>
     <g style="fill:#0099aa;" transform="translate(818.311765 483.048153)scale(0.18 -0.18)">
      <use xlink:href="#DejaVuSans-Bold-4b"/>
      <use x="77.490234" xlink:href="#DejaVuSans-Bold-69"/>
      <use x="111.767578" xlink:href="#DejaVuSans-Bold-6e"/>
      <use x="182.958984" xlink:href="#DejaVuSans-Bold-67"/>
      <use x="254.541016" xlink:href="#DejaVuSans-Bold-64"/>
      <use x="326.123047" xlink:href="#DejaVuSans-Bold-6f"/>
      <use x="394.824219" xlink:href="#DejaVuSans-Bold-6d"/>
      <use x="499.023438" xlink:href="#DejaVuSans-Bold-20"/>
      <use x="533.837891" xlink:href="#DejaVuSans-Bold-6f"/>
      <use x="602.539062" xlink:href="#DejaVuSans-Bold-66"/>
      <use x="646.044922" xlink:href="#DejaVuSans-Bold-20"/>
      <use x="680.859375" xlink:href="#DejaVuSans-Bold-53"/>
      <use x="752.880859" xlink:href="#DejaVuSans-Bold-61"/>
      <use x="820.361328" xlink:href="#DejaVuSans-Bold-75"/>
      <use x="891.552734" xlink:href="#DejaVuSans-Bold-64"/>
      <use x="963.134766" xlink:href="#DejaVuSans-Bold-69"/>
      <use x="997.412109" xlink:href="#DejaVuSans-Bold-20"/>
      <use x="1032.226562" xlink:href="#DejaVuSans-Bold-41"/>
      <use x="1109.619141" xlink:href="#DejaVuSans-Bold-72"/>
      <use x="1158.935547" xlink:href="#DejaVuSans-Bold-61"/>
      <use x="1226.416016" xlink:href="#DejaVuSans-Bold-62"/>
      <use x="1297.998047" xlink:href="#DejaVuSans-Bold-69"/>
      <use x="1332.275391" xlink:href="#DejaVuSans-Bold-61"/>
     </g>
    </g>
   </g>
  </g>
  <g id="axes_4">
   <g id="LineCollection_6">
    <path clip-path="url(#peac7f54b44)" d="M 280.416083 652.670642 
L 313.584679 702.84161 
" style="fill:none;stroke:#555555;stroke-width:5;"/>
   </g>
   <g id="LineCollection_7">
    <path clip-path="url(#peac7f54b44)" d="M 280.416083 652.670642 
L 244.133449 603.815668 
" style="fill:none;stroke:#aaaaaa;stroke-width:1.7;"/>
    <path clip-path="url(#peac7f54b44)" d="M 275.648303 562.777208 
L 244.133449 603.815668 
" style="fill:none;stroke:#aaaaaa;stroke-width:1.8;"/>
    <path clip-path="url(#peac7f54b44)" d="M 313.584679 702.84161 
L 279.872903 741.666428 
" style="fill:none;stroke:#aaaaaa;stroke-width:1.1;"/>
    <path clip-path="url(#peac7f54b44)" d="M 313.584679 702.84161 
L 386.562811 730.697646 
" style="fill:none;stroke:#aaaaaa;stroke-width:1.1;"/>
    <path clip-path="url(#peac7f54b44)" d="M 244.133449 603.815668 
L 164.025425 581.625283 
" style="fill:none;stroke:#aaaaaa;stroke-width:1.1;"/>
   </g>
   <g id="PathCollection_7">
    <g clip-path="url(#peac7f54b44)">
     <use style="fill:#ff0000;stroke:#ff0000;" x="280.416083" xlink:href="#m90073f55a5" y="652.670642"/>
     <use style="fill:#ff0000;stroke:#ff0000;" x="275.648303" xlink:href="#m90073f55a5" y="562.777208"/>
     <use style="fill:#ff0000;stroke:#ff0000;" x="164.025425" xlink:href="#m90073f55a5" y="581.625283"/>
     <use style="fill:#ff0000;stroke:#ff0000;" x="279.872903" xlink:href="#m90073f55a5" y="741.666428"/>
     <use style="fill:#ff0000;stroke:#ff0000;" x="386.562811" xlink:href="#m90073f55a5" y="730.697646"/>
    </g>
   </g>
   <g id="PathCollection_8">
    <g clip-path="url(#peac7f54b44)">
     <use style="fill:#0000ff;stroke:#0000ff;" x="313.584679" xlink:href="#m3520cf8667" y="702.84161"/>
     <use style="fill:#0000ff;stroke:#0000ff;" x="244.133449" xlink:href="#m3520cf8667" y="603.815668"/>
    </g>
   </g>
   <g id="text_34">
    <g clip-path="url(#peac7f54b44)">
     <!-- IR -->
     <defs>
      <path d="M 9.1875 72.90625 
L 27.984375 72.90625 
L 27.984375 0 
L 9.1875 0 
z
" id="DejaVuSans-Bold-49"/>
     </defs>
     <g style="fill:#ffffff;" transform="translate(305.59046 706.704735)scale(0.14 -0.14)">
      <use xlink:href="#DejaVuSans-Bold-49"/>
      <use x="37.207031" xlink:href="#DejaVuSans-Bold-52"/>
     </g>
    </g>
   </g>
   <g id="text_35">
    <g clip-path="url(#peac7f54b44)">
     <!-- IQ -->
     <defs>
      <path d="M 44.484375 -1.3125 
L 43.015625 -1.3125 
Q 25 -1.3125 14.984375 8.640625 
Q 4.984375 18.609375 4.984375 36.375 
Q 4.984375 54.109375 14.96875 64.15625 
Q 24.953125 74.21875 42.484375 74.21875 
Q 60.203125 74.21875 70.09375 64.25 
Q 79.984375 54.296875 79.984375 36.375 
Q 79.984375 24.078125 74.734375 15.1875 
Q 69.484375 6.296875 59.625 1.8125 
L 74.3125 -14.59375 
L 56.390625 -14.59375 
z
M 42.484375 60.59375 
Q 33.890625 60.59375 29.15625 54.25 
Q 24.421875 47.90625 24.421875 36.375 
Q 24.421875 24.65625 29.046875 18.421875 
Q 33.6875 12.203125 42.484375 12.203125 
Q 51.125 12.203125 55.859375 18.546875 
Q 60.59375 24.90625 60.59375 36.375 
Q 60.59375 47.90625 55.859375 54.25 
Q 51.125 60.59375 42.484375 60.59375 
z
" id="DejaVuSans-Bold-51"/>
     </defs>
     <g style="fill:#ffffff;" transform="translate(235.578137 607.678793)scale(0.14 -0.14)">
      <use xlink:href="#DejaVuSans-Bold-49"/>
      <use x="37.207031" xlink:href="#DejaVuSans-Bold-51"/>
     </g>
    </g>
   </g>
   <g id="text_36">
    <g clip-path="url(#peac7f54b44)">
     <!-- 10 -->
     <defs>
      <path d="M 46 36.53125 
Q 46 50.203125 43.4375 55.78125 
Q 40.875 61.375 34.8125 61.375 
Q 28.765625 61.375 26.171875 55.78125 
Q 23.578125 50.203125 23.578125 36.53125 
Q 23.578125 22.703125 26.171875 17.03125 
Q 28.765625 11.375 34.8125 11.375 
Q 40.828125 11.375 43.40625 17.03125 
Q 46 22.703125 46 36.53125 
z
M 64.796875 36.375 
Q 64.796875 18.265625 56.984375 8.421875 
Q 49.171875 -1.421875 34.8125 -1.421875 
Q 20.40625 -1.421875 12.59375 8.421875 
Q 4.78125 18.265625 4.78125 36.375 
Q 4.78125 54.546875 12.59375 64.375 
Q 20.40625 74.21875 34.8125 74.21875 
Q 49.171875 74.21875 56.984375 64.375 
Q 64.796875 54.546875 64.796875 36.375 
z
" id="DejaVuSans-Bold-30"/>
     </defs>
     <g style="fill:#ffffff;" transform="translate(270.675145 656.533767)scale(0.14 -0.14)">
      <use xlink:href="#DejaVuSans-Bold-31"/>
      <use x="69.580078" xlink:href="#DejaVuSans-Bold-30"/>
     </g>
    </g>
   </g>
   <g id="text_37">
    <g clip-path="url(#peac7f54b44)">
     <!-- 11 -->
     <g style="fill:#ffffff;" transform="translate(265.907365 566.640333)scale(0.14 -0.14)">
      <use xlink:href="#DejaVuSans-Bold-31"/>
      <use x="69.580078" xlink:href="#DejaVuSans-Bold-31"/>
     </g>
    </g>
   </g>
   <g id="text_38">
    <g clip-path="url(#peac7f54b44)">
     <!-- 12 -->
     <g style="fill:#ffffff;" transform="translate(154.284487 585.488408)scale(0.14 -0.14)">
      <use xlink:href="#DejaVuSans-Bold-31"/>
      <use x="69.580078" xlink:href="#DejaVuSans-Bold-32"/>
     </g>
    </g>
   </g>
   <g id="text_39">
    <g clip-path="url(#peac7f54b44)">
     <!-- 13 -->
     <g style="fill:#ffffff;" transform="translate(270.131965 745.529553)scale(0.14 -0.14)">
      <use xlink:href="#DejaVuSans-Bold-31"/>
      <use x="69.580078" xlink:href="#DejaVuSans-Bold-33"/>
     </g>
    </g>
   </g>
   <g id="text_40">
    <g clip-path="url(#peac7f54b44)">
     <!-- 14 -->
     <g style="fill:#ffffff;" transform="translate(376.821873 734.560771)scale(0.14 -0.14)">
      <use xlink:href="#DejaVuSans-Bold-31"/>
      <use x="69.580078" xlink:href="#DejaVuSans-Bold-34"/>
     </g>
    </g>
   </g>
   <g id="legend_4">
    <g id="patch_14">
     <path d="M 156.6 902.503125 
L 292.356562 902.503125 
Q 295.956563 902.503125 295.956563 898.903125 
L 295.956563 768.6 
Q 295.956563 765 292.356562 765 
L 156.6 765 
Q 153 765 153 768.6 
L 153 898.903125 
Q 153 902.503125 156.6 902.503125 
z
" style="fill:#ffffff;opacity:0.8;stroke:#cccccc;stroke-linejoin:miter;"/>
    </g>
    <g id="patch_15">
     <path d="M 166.95 790.917187 
C 169.957403 790.917187 172.842036 789.722334 174.968591 787.595778 
C 177.095146 785.469223 178.29 782.584591 178.29 779.577187 
C 178.29 776.569784 177.095146 773.685152 174.968591 771.558597 
C 172.842036 769.432041 169.957403 768.237187 166.95 768.237187 
C 163.942597 768.237187 161.057964 769.432041 158.931409 771.558597 
C 156.804854 773.685152 155.61 776.569784 155.61 779.577187 
C 155.61 782.584591 156.804854 785.469223 158.931409 787.595778 
C 161.057964 789.722334 163.942597 790.917187 166.95 790.917187 
z
" style="fill:#ff0000;stroke:#ff0000;stroke-linejoin:miter;"/>
    </g>
    <g id="text_41">
     <!-- 10 -->
     <g style="fill:#ffffff;" transform="translate(157.209062 783.440312)scale(0.14 -0.14)">
      <use xlink:href="#DejaVuSans-Bold-31"/>
      <use x="69.580078" xlink:href="#DejaVuSans-Bold-30"/>
     </g>
    </g>
    <g id="text_42">
     <!-- Iran -->
     <g style="fill:#0099aa;" transform="translate(188.1 785.877187)scale(0.18 -0.18)">
      <use xlink:href="#DejaVuSans-Bold-49"/>
      <use x="37.207031" xlink:href="#DejaVuSans-Bold-72"/>
      <use x="86.523438" xlink:href="#DejaVuSans-Bold-61"/>
      <use x="154.003906" xlink:href="#DejaVuSans-Bold-6e"/>
     </g>
    </g>
    <g id="patch_16">
     <path d="M 166.95 817.337812 
C 169.957403 817.337812 172.842036 816.142959 174.968591 814.016403 
C 177.095146 811.889848 178.29 809.005216 178.29 805.997812 
C 178.29 802.990409 177.095146 800.105777 174.968591 797.979222 
C 172.842036 795.852666 169.957403 794.657812 166.95 794.657812 
C 163.942597 794.657812 161.057964 795.852666 158.931409 797.979222 
C 156.804854 800.105777 155.61 802.990409 155.61 805.997812 
C 155.61 809.005216 156.804854 811.889848 158.931409 814.016403 
C 161.057964 816.142959 163.942597 817.337812 166.95 817.337812 
z
" style="fill:#ff0000;stroke:#ff0000;stroke-linejoin:miter;"/>
    </g>
    <g id="text_43">
     <!-- 11 -->
     <g style="fill:#ffffff;" transform="translate(157.209062 809.860937)scale(0.14 -0.14)">
      <use xlink:href="#DejaVuSans-Bold-31"/>
      <use x="69.580078" xlink:href="#DejaVuSans-Bold-31"/>
     </g>
    </g>
    <g id="text_44">
     <!-- Iraq -->
     <defs>
      <path d="M 34.078125 43.3125 
Q 28.515625 43.3125 25.5625 39.203125 
Q 22.609375 35.109375 22.609375 27.296875 
Q 22.609375 19.484375 25.5625 15.375 
Q 28.515625 11.28125 34.078125 11.28125 
Q 39.703125 11.28125 42.65625 15.375 
Q 45.609375 19.484375 45.609375 27.296875 
Q 45.609375 35.109375 42.65625 39.203125 
Q 39.703125 43.3125 34.078125 43.3125 
z
M 45.609375 7.90625 
Q 42 3.078125 37.640625 0.828125 
Q 33.296875 -1.421875 27.59375 -1.421875 
Q 17.484375 -1.421875 10.984375 6.609375 
Q 4.5 14.65625 4.5 27.296875 
Q 4.5 39.9375 10.984375 47.921875 
Q 17.484375 55.90625 27.59375 55.90625 
Q 33.296875 55.90625 37.640625 53.65625 
Q 42 51.421875 45.609375 46.578125 
L 45.609375 54.6875 
L 63.1875 54.6875 
L 63.1875 -20.796875 
L 45.609375 -20.796875 
z
" id="DejaVuSans-Bold-71"/>
     </defs>
     <g style="fill:#0099aa;" transform="translate(188.1 812.297812)scale(0.18 -0.18)">
      <use xlink:href="#DejaVuSans-Bold-49"/>
      <use x="37.207031" xlink:href="#DejaVuSans-Bold-72"/>
      <use x="86.523438" xlink:href="#DejaVuSans-Bold-61"/>
      <use x="154.003906" xlink:href="#DejaVuSans-Bold-71"/>
     </g>
    </g>
    <g id="patch_17">
     <path d="M 166.95 843.758437 
C 169.957403 843.758437 172.842036 842.563584 174.968591 840.437028 
C 177.095146 838.310473 178.29 835.425841 178.29 832.418437 
C 178.29 829.411034 177.095146 826.526402 174.968591 824.399847 
C 172.842036 822.273291 169.957403 821.078437 166.95 821.078437 
C 163.942597 821.078437 161.057964 822.273291 158.931409 824.399847 
C 156.804854 826.526402 155.61 829.411034 155.61 832.418437 
C 155.61 835.425841 156.804854 838.310473 158.931409 840.437028 
C 161.057964 842.563584 163.942597 843.758437 166.95 843.758437 
z
" style="fill:#ff0000;stroke:#ff0000;stroke-linejoin:miter;"/>
    </g>
    <g id="text_45">
     <!-- 12 -->
     <g style="fill:#ffffff;" transform="translate(157.209062 836.281562)scale(0.14 -0.14)">
      <use xlink:href="#DejaVuSans-Bold-31"/>
      <use x="69.580078" xlink:href="#DejaVuSans-Bold-32"/>
     </g>
    </g>
    <g id="text_46">
     <!-- Iraque -->
     <g style="fill:#0099aa;" transform="translate(188.1 838.718437)scale(0.18 -0.18)">
      <use xlink:href="#DejaVuSans-Bold-49"/>
      <use x="37.207031" xlink:href="#DejaVuSans-Bold-72"/>
      <use x="86.523438" xlink:href="#DejaVuSans-Bold-61"/>
      <use x="154.003906" xlink:href="#DejaVuSans-Bold-71"/>
      <use x="225.585938" xlink:href="#DejaVuSans-Bold-75"/>
      <use x="296.777344" xlink:href="#DejaVuSans-Bold-65"/>
     </g>
    </g>
    <g id="patch_18">
     <path d="M 166.95 870.179062 
C 169.957403 870.179062 172.842036 868.984209 174.968591 866.857653 
C 177.095146 864.731098 178.29 861.846466 178.29 858.839062 
C 178.29 855.831659 177.095146 852.947027 174.968591 850.820472 
C 172.842036 848.693916 169.957403 847.499062 166.95 847.499062 
C 163.942597 847.499062 161.057964 848.693916 158.931409 850.820472 
C 156.804854 852.947027 155.61 855.831659 155.61 858.839062 
C 155.61 861.846466 156.804854 864.731098 158.931409 866.857653 
C 161.057964 868.984209 163.942597 870.179062 166.95 870.179062 
z
" style="fill:#ff0000;stroke:#ff0000;stroke-linejoin:miter;"/>
    </g>
    <g id="text_47">
     <!-- 13 -->
     <g style="fill:#ffffff;" transform="translate(157.209062 862.702187)scale(0.14 -0.14)">
      <use xlink:href="#DejaVuSans-Bold-31"/>
      <use x="69.580078" xlink:href="#DejaVuSans-Bold-33"/>
     </g>
    </g>
    <g id="text_48">
     <!-- I.R of Iran -->
     <defs>
      <path d="M 10.203125 18.890625 
L 27.78125 18.890625 
L 27.78125 0 
L 10.203125 0 
z
" id="DejaVuSans-Bold-2e"/>
     </defs>
     <g style="fill:#0099aa;" transform="translate(188.1 865.139062)scale(0.18 -0.18)">
      <use xlink:href="#DejaVuSans-Bold-49"/>
      <use x="37.207031" xlink:href="#DejaVuSans-Bold-2e"/>
      <use x="75.195312" xlink:href="#DejaVuSans-Bold-52"/>
      <use x="152.197266" xlink:href="#DejaVuSans-Bold-20"/>
      <use x="187.011719" xlink:href="#DejaVuSans-Bold-6f"/>
      <use x="255.712891" xlink:href="#DejaVuSans-Bold-66"/>
      <use x="299.21875" xlink:href="#DejaVuSans-Bold-20"/>
      <use x="334.033203" xlink:href="#DejaVuSans-Bold-49"/>
      <use x="371.240234" xlink:href="#DejaVuSans-Bold-72"/>
      <use x="420.556641" xlink:href="#DejaVuSans-Bold-61"/>
      <use x="488.037109" xlink:href="#DejaVuSans-Bold-6e"/>
     </g>
    </g>
    <g id="patch_19">
     <path d="M 166.95 896.599687 
C 169.957403 896.599687 172.842036 895.404834 174.968591 893.278278 
C 177.095146 891.151723 178.29 888.267091 178.29 885.259687 
C 178.29 882.252284 177.095146 879.367652 174.968591 877.241097 
C 172.842036 875.114541 169.957403 873.919687 166.95 873.919687 
C 163.942597 873.919687 161.057964 875.114541 158.931409 877.241097 
C 156.804854 879.367652 155.61 882.252284 155.61 885.259687 
C 155.61 888.267091 156.804854 891.151723 158.931409 893.278278 
C 161.057964 895.404834 163.942597 896.599687 166.95 896.599687 
z
" style="fill:#ff0000;stroke:#ff0000;stroke-linejoin:miter;"/>
    </g>
    <g id="text_49">
     <!-- 14 -->
     <g style="fill:#ffffff;" transform="translate(157.209062 889.122812)scale(0.14 -0.14)">
      <use xlink:href="#DejaVuSans-Bold-31"/>
      <use x="69.580078" xlink:href="#DejaVuSans-Bold-34"/>
     </g>
    </g>
    <g id="text_50">
     <!-- Ir -->
     <defs>
      <path d="M 32.90625 24.609375 
Q 27.4375 24.609375 24.671875 22.75 
Q 21.921875 20.90625 21.921875 17.28125 
Q 21.921875 13.96875 24.140625 12.078125 
Q 26.375 10.203125 30.328125 10.203125 
Q 35.25 10.203125 38.625 13.734375 
Q 42 17.28125 42 22.609375 
L 42 24.609375 
z
M 59.625 31.203125 
L 59.625 0 
L 42 0 
L 42 8.109375 
Q 38.484375 3.125 34.078125 0.84375 
Q 29.6875 -1.421875 23.390625 -1.421875 
Q 14.890625 -1.421875 9.59375 3.53125 
Q 4.296875 8.5 4.296875 16.40625 
Q 4.296875 26.03125 10.90625 30.515625 
Q 17.53125 35.015625 31.6875 35.015625 
L 42 35.015625 
L 42 36.375 
Q 42 40.53125 38.71875 42.453125 
Q 35.453125 44.390625 28.515625 44.390625 
Q 22.90625 44.390625 18.0625 43.265625 
Q 13.234375 42.140625 9.078125 39.890625 
L 9.078125 53.21875 
Q 14.703125 54.59375 20.359375 55.296875 
Q 26.03125 56 31.6875 56 
Q 46.484375 56 53.046875 50.171875 
Q 59.625 44.34375 59.625 31.203125 
z
M 34.1875 66.609375 
L 31.5 68.40625 
Q 31.296875 68.5 31 68.703125 
Q 28.71875 70.21875 27.484375 70.21875 
Q 25.734375 70.21875 24.796875 68.703125 
Q 23.875 67.1875 23.875 64.3125 
L 23.875 63.921875 
L 17.09375 63.921875 
Q 17.09375 70.5625 19.609375 74.171875 
Q 22.125 77.78125 26.65625 77.78125 
Q 28.421875 77.78125 30.203125 77.125 
Q 31.984375 76.46875 33.984375 75 
L 36.96875 72.90625 
Q 38.03125 72.171875 38.9375 71.78125 
Q 39.84375 71.390625 40.578125 71.390625 
Q 42.328125 71.390625 43.296875 72.953125 
Q 44.28125 74.515625 44.28125 77.296875 
L 44.28125 77.6875 
L 51.078125 77.6875 
Q 51.078125 71.046875 48.5625 67.421875 
Q 46.046875 63.8125 41.5 63.8125 
Q 39.75 63.8125 38.109375 64.390625 
Q 36.46875 64.984375 34.1875 66.609375 
z
" id="DejaVuSans-Bold-e3"/>
     </defs>
     <g style="fill:#0099aa;" transform="translate(188.1 891.559687)scale(0.18 -0.18)">
      <use xlink:href="#DejaVuSans-Bold-49"/>
      <use x="37.207031" xlink:href="#DejaVuSans-Bold-72"/>
      <use x="86.523438" xlink:href="#DejaVuSans-Bold-e3"/>
     </g>
    </g>
   </g>
  </g>
  <g id="axes_5">
   <g id="LineCollection_8">
    <path clip-path="url(#pca4389d6d5)" d="M 481.26448 736.569843 
L 598.702491 645.819713 
" style="fill:none;stroke:#555555;stroke-width:5;"/>
   </g>
   <g id="LineCollection_9">
    <path clip-path="url(#pca4389d6d5)" d="M 598.702491 645.819713 
L 699.53552 567.873793 
" style="fill:none;stroke:#aaaaaa;stroke-width:1.7;"/>
   </g>
   <g id="PathCollection_9">
    <g clip-path="url(#pca4389d6d5)">
     <use style="fill:#ff0000;stroke:#ff0000;" x="598.702491" xlink:href="#m90073f55a5" y="645.819713"/>
    </g>
   </g>
   <g id="PathCollection_10">
    <g clip-path="url(#pca4389d6d5)">
     <use style="fill:#0000ff;stroke:#0000ff;" x="481.26448" xlink:href="#m3520cf8667" y="736.569843"/>
     <use style="fill:#0000ff;stroke:#0000ff;" x="699.53552" xlink:href="#m3520cf8667" y="567.873793"/>
    </g>
   </g>
   <g id="text_51">
    <g clip-path="url(#pca4389d6d5)">
     <!-- RS -->
     <g style="fill:#ffffff;" transform="translate(470.833386 740.432968)scale(0.14 -0.14)">
      <use xlink:href="#DejaVuSans-Bold-52"/>
      <use x="77.001953" xlink:href="#DejaVuSans-Bold-53"/>
     </g>
    </g>
   </g>
   <g id="text_52">
    <g clip-path="url(#pca4389d6d5)">
     <!-- SB -->
     <defs>
      <path d="M 38.375 44.671875 
Q 42.828125 44.671875 45.109375 46.625 
Q 47.40625 48.578125 47.40625 52.390625 
Q 47.40625 56.15625 45.109375 58.125 
Q 42.828125 60.109375 38.375 60.109375 
L 27.984375 60.109375 
L 27.984375 44.671875 
z
M 39.015625 12.796875 
Q 44.671875 12.796875 47.53125 15.1875 
Q 50.390625 17.578125 50.390625 22.40625 
Q 50.390625 27.15625 47.5625 29.515625 
Q 44.734375 31.890625 39.015625 31.890625 
L 27.984375 31.890625 
L 27.984375 12.796875 
z
M 56.5 39.015625 
Q 62.546875 37.25 65.859375 32.515625 
Q 69.1875 27.78125 69.1875 20.90625 
Q 69.1875 10.359375 62.0625 5.171875 
Q 54.9375 0 40.375 0 
L 9.1875 0 
L 9.1875 72.90625 
L 37.40625 72.90625 
Q 52.59375 72.90625 59.40625 68.3125 
Q 66.21875 63.71875 66.21875 53.609375 
Q 66.21875 48.296875 63.71875 44.5625 
Q 61.234375 40.828125 56.5 39.015625 
z
" id="DejaVuSans-Bold-42"/>
     </defs>
     <g style="fill:#ffffff;" transform="translate(689.159114 571.736918)scale(0.14 -0.14)">
      <use xlink:href="#DejaVuSans-Bold-53"/>
      <use x="72.021484" xlink:href="#DejaVuSans-Bold-42"/>
     </g>
    </g>
   </g>
   <g id="text_53">
    <g clip-path="url(#pca4389d6d5)">
     <!-- 15 -->
     <g style="fill:#ffffff;" transform="translate(588.961554 649.682838)scale(0.14 -0.14)">
      <use xlink:href="#DejaVuSans-Bold-31"/>
      <use x="69.580078" xlink:href="#DejaVuSans-Bold-35"/>
     </g>
    </g>
   </g>
   <g id="legend_5">
    <g id="patch_20">
     <path d="M 471.705882 796.820625 
L 572.055882 796.820625 
Q 575.655882 796.820625 575.655882 793.220625 
L 575.655882 768.6 
Q 575.655882 765 572.055882 765 
L 471.705882 765 
Q 468.105882 765 468.105882 768.6 
L 468.105882 793.220625 
Q 468.105882 796.820625 471.705882 796.820625 
z
" style="fill:#ffffff;opacity:0.8;stroke:#cccccc;stroke-linejoin:miter;"/>
    </g>
    <g id="patch_21">
     <path d="M 482.055882 790.917187 
C 485.063286 790.917187 487.947918 789.722334 490.074473 787.595778 
C 492.201028 785.469223 493.395882 782.584591 493.395882 779.577187 
C 493.395882 776.569784 492.201028 773.685152 490.074473 771.558597 
C 487.947918 769.432041 485.063286 768.237187 482.055882 768.237187 
C 479.048479 768.237187 476.163847 769.432041 474.037291 771.558597 
C 471.910736 773.685152 470.715882 776.569784 470.715882 779.577187 
C 470.715882 782.584591 471.910736 785.469223 474.037291 787.595778 
C 476.163847 789.722334 479.048479 790.917187 482.055882 790.917187 
z
" style="fill:#ff0000;stroke:#ff0000;stroke-linejoin:miter;"/>
    </g>
    <g id="text_54">
     <!-- 15 -->
     <g style="fill:#ffffff;" transform="translate(472.314945 783.440312)scale(0.14 -0.14)">
      <use xlink:href="#DejaVuSans-Bold-31"/>
      <use x="69.580078" xlink:href="#DejaVuSans-Bold-35"/>
     </g>
    </g>
    <g id="text_55">
     <!-- Serbia -->
     <g style="fill:#0099aa;" transform="translate(503.205882 785.877187)scale(0.18 -0.18)">
      <use xlink:href="#DejaVuSans-Bold-53"/>
      <use x="72.021484" xlink:href="#DejaVuSans-Bold-65"/>
      <use x="139.84375" xlink:href="#DejaVuSans-Bold-72"/>
      <use x="189.160156" xlink:href="#DejaVuSans-Bold-62"/>
      <use x="260.742188" xlink:href="#DejaVuSans-Bold-69"/>
      <use x="295.019531" xlink:href="#DejaVuSans-Bold-61"/>
     </g>
    </g>
   </g>
  </g>
  <g id="axes_6">
   <g id="LineCollection_10">
    <path clip-path="url(#p9226de3af3)" d="M 916.141869 608.236431 
L 958.83122 678.637491 
" style="fill:none;stroke:#aaaaaa;stroke-width:4.9;"/>
    <path clip-path="url(#p9226de3af3)" d="M 916.141869 608.236431 
L 1014.924059 563.422754 
" style="fill:none;stroke:#aaaaaa;stroke-width:1.1;"/>
    <path clip-path="url(#p9226de3af3)" d="M 916.141869 608.236431 
L 796.087706 579.072276 
" style="fill:none;stroke:#aaaaaa;stroke-width:1.1;"/>
    <path clip-path="url(#p9226de3af3)" d="M 1000.575842 736.010693 
L 958.83122 678.637491 
" style="fill:none;stroke:#aaaaaa;stroke-width:1.9;"/>
   </g>
   <g id="PathCollection_11">
    <g clip-path="url(#p9226de3af3)">
     <use style="fill:#ff0000;stroke:#ff0000;" x="958.83122" xlink:href="#m90073f55a5" y="678.637491"/>
     <use style="fill:#ff0000;stroke:#ff0000;" x="796.087706" xlink:href="#m90073f55a5" y="579.072276"/>
     <use style="fill:#ff0000;stroke:#ff0000;" x="1014.924059" xlink:href="#m90073f55a5" y="563.422754"/>
    </g>
   </g>
   <g id="PathCollection_12">
    <g clip-path="url(#p9226de3af3)">
     <use style="fill:#0000ff;stroke:#0000ff;" x="916.141869" xlink:href="#m3520cf8667" y="608.236431"/>
     <use style="fill:#0000ff;stroke:#0000ff;" x="1000.575842" xlink:href="#m3520cf8667" y="736.010693"/>
    </g>
   </g>
   <g id="text_56">
    <g clip-path="url(#p9226de3af3)">
     <!-- ZA -->
     <g style="fill:#ffffff;" transform="translate(905.648431 612.099556)scale(0.14 -0.14)">
      <use xlink:href="#DejaVuSans-Bold-5a"/>
      <use x="72.509766" xlink:href="#DejaVuSans-Bold-41"/>
     </g>
    </g>
   </g>
   <g id="text_57">
    <g clip-path="url(#p9226de3af3)">
     <!-- ZM -->
     <defs>
      <path d="M 9.1875 72.90625 
L 33.109375 72.90625 
L 49.703125 33.890625 
L 66.40625 72.90625 
L 90.28125 72.90625 
L 90.28125 0 
L 72.515625 0 
L 72.515625 53.328125 
L 55.71875 14.015625 
L 43.796875 14.015625 
L 27 53.328125 
L 27 0 
L 9.1875 0 
z
" id="DejaVuSans-Bold-4d"/>
     </defs>
     <g style="fill:#ffffff;" transform="translate(988.533654 739.873818)scale(0.14 -0.14)">
      <use xlink:href="#DejaVuSans-Bold-5a"/>
      <use x="72.509766" xlink:href="#DejaVuSans-Bold-4d"/>
     </g>
    </g>
   </g>
   <g id="text_58">
    <g clip-path="url(#p9226de3af3)">
     <!-- 16 -->
     <g style="fill:#ffffff;" transform="translate(949.090283 682.500616)scale(0.14 -0.14)">
      <use xlink:href="#DejaVuSans-Bold-31"/>
      <use x="69.580078" xlink:href="#DejaVuSans-Bold-36"/>
     </g>
    </g>
   </g>
   <g id="text_59">
    <g clip-path="url(#p9226de3af3)">
     <!-- 17 -->
     <g style="fill:#ffffff;" transform="translate(786.346768 582.935401)scale(0.14 -0.14)">
      <use xlink:href="#DejaVuSans-Bold-31"/>
      <use x="69.580078" xlink:href="#DejaVuSans-Bold-37"/>
     </g>
    </g>
   </g>
   <g id="text_60">
    <g clip-path="url(#p9226de3af3)">
     <!-- 18 -->
     <g style="fill:#ffffff;" transform="translate(1005.183121 567.285879)scale(0.14 -0.14)">
      <use xlink:href="#DejaVuSans-Bold-31"/>
      <use x="69.580078" xlink:href="#DejaVuSans-Bold-38"/>
     </g>
    </g>
   </g>
   <g id="legend_6">
    <g id="patch_22">
     <path d="M 786.811765 849.661875 
L 960.177077 849.661875 
Q 963.777077 849.661875 963.777077 846.061875 
L 963.777077 768.6 
Q 963.777077 765 960.177077 765 
L 786.811765 765 
Q 783.211765 765 783.211765 768.6 
L 783.211765 846.061875 
Q 783.211765 849.661875 786.811765 849.661875 
z
" style="fill:#ffffff;opacity:0.8;stroke:#cccccc;stroke-linejoin:miter;"/>
    </g>
    <g id="patch_23">
     <path d="M 797.161765 790.917187 
C 800.169168 790.917187 803.0538 789.722334 805.180356 787.595778 
C 807.306911 785.469223 808.501765 782.584591 808.501765 779.577187 
C 808.501765 776.569784 807.306911 773.685152 805.180356 771.558597 
C 803.0538 769.432041 800.169168 768.237187 797.161765 768.237187 
C 794.154362 768.237187 791.269729 769.432041 789.143174 771.558597 
C 787.016619 773.685152 785.821765 776.569784 785.821765 779.577187 
C 785.821765 782.584591 787.016619 785.469223 789.143174 787.595778 
C 791.269729 789.722334 794.154362 790.917187 797.161765 790.917187 
z
" style="fill:#ff0000;stroke:#ff0000;stroke-linejoin:miter;"/>
    </g>
    <g id="text_61">
     <!-- 16 -->
     <g style="fill:#ffffff;" transform="translate(787.420827 783.440312)scale(0.14 -0.14)">
      <use xlink:href="#DejaVuSans-Bold-31"/>
      <use x="69.580078" xlink:href="#DejaVuSans-Bold-36"/>
     </g>
    </g>
    <g id="text_62">
     <!-- South Africa -->
     <g style="fill:#0099aa;" transform="translate(818.311765 785.877187)scale(0.18 -0.18)">
      <use xlink:href="#DejaVuSans-Bold-53"/>
      <use x="72.021484" xlink:href="#DejaVuSans-Bold-6f"/>
      <use x="140.722656" xlink:href="#DejaVuSans-Bold-75"/>
      <use x="211.914062" xlink:href="#DejaVuSans-Bold-74"/>
      <use x="259.716797" xlink:href="#DejaVuSans-Bold-68"/>
      <use x="330.908203" xlink:href="#DejaVuSans-Bold-20"/>
      <use x="365.722656" xlink:href="#DejaVuSans-Bold-41"/>
      <use x="443.115234" xlink:href="#DejaVuSans-Bold-66"/>
      <use x="486.621094" xlink:href="#DejaVuSans-Bold-72"/>
      <use x="535.9375" xlink:href="#DejaVuSans-Bold-69"/>
      <use x="570.214844" xlink:href="#DejaVuSans-Bold-63"/>
      <use x="629.492188" xlink:href="#DejaVuSans-Bold-61"/>
     </g>
    </g>
    <g id="patch_24">
     <path d="M 797.161765 817.337812 
C 800.169168 817.337812 803.0538 816.142959 805.180356 814.016403 
C 807.306911 811.889848 808.501765 809.005216 808.501765 805.997812 
C 808.501765 802.990409 807.306911 800.105777 805.180356 797.979222 
C 803.0538 795.852666 800.169168 794.657812 797.161765 794.657812 
C 794.154362 794.657812 791.269729 795.852666 789.143174 797.979222 
C 787.016619 800.105777 785.821765 802.990409 785.821765 805.997812 
C 785.821765 809.005216 787.016619 811.889848 789.143174 814.016403 
C 791.269729 816.142959 794.154362 817.337812 797.161765 817.337812 
z
" style="fill:#ff0000;stroke:#ff0000;stroke-linejoin:miter;"/>
    </g>
    <g id="text_63">
     <!-- 17 -->
     <g style="fill:#ffffff;" transform="translate(787.420827 809.860937)scale(0.14 -0.14)">
      <use xlink:href="#DejaVuSans-Bold-31"/>
      <use x="69.580078" xlink:href="#DejaVuSans-Bold-37"/>
     </g>
    </g>
    <g id="text_64">
     <!-- frica do Sul -->
     <defs>
      <path d="M 53.421875 13.28125 
L 24.03125 13.28125 
L 19.390625 0 
L 0.484375 0 
L 27.484375 72.90625 
L 49.90625 72.90625 
L 76.90625 0 
L 58.015625 0 
z
M 28.71875 26.8125 
L 48.6875 26.8125 
L 38.71875 55.8125 
z
M 39.984375 92.734375 
L 53.8125 92.734375 
L 39.890625 79.84375 
L 30.328125 79.84375 
z
" id="DejaVuSans-Bold-c1"/>
     </defs>
     <g style="fill:#0099aa;" transform="translate(818.311765 812.297812)scale(0.18 -0.18)">
      <use xlink:href="#DejaVuSans-Bold-c1"/>
      <use x="77.392578" xlink:href="#DejaVuSans-Bold-66"/>
      <use x="120.898438" xlink:href="#DejaVuSans-Bold-72"/>
      <use x="170.214844" xlink:href="#DejaVuSans-Bold-69"/>
      <use x="204.492188" xlink:href="#DejaVuSans-Bold-63"/>
      <use x="263.769531" xlink:href="#DejaVuSans-Bold-61"/>
      <use x="331.25" xlink:href="#DejaVuSans-Bold-20"/>
      <use x="366.064453" xlink:href="#DejaVuSans-Bold-64"/>
      <use x="437.646484" xlink:href="#DejaVuSans-Bold-6f"/>
      <use x="506.347656" xlink:href="#DejaVuSans-Bold-20"/>
      <use x="541.162109" xlink:href="#DejaVuSans-Bold-53"/>
      <use x="613.183594" xlink:href="#DejaVuSans-Bold-75"/>
      <use x="684.375" xlink:href="#DejaVuSans-Bold-6c"/>
     </g>
    </g>
    <g id="patch_25">
     <path d="M 797.161765 843.758437 
C 800.169168 843.758437 803.0538 842.563584 805.180356 840.437028 
C 807.306911 838.310473 808.501765 835.425841 808.501765 832.418437 
C 808.501765 829.411034 807.306911 826.526402 805.180356 824.399847 
C 803.0538 822.273291 800.169168 821.078437 797.161765 821.078437 
C 794.154362 821.078437 791.269729 822.273291 789.143174 824.399847 
C 787.016619 826.526402 785.821765 829.411034 785.821765 832.418437 
C 785.821765 835.425841 787.016619 838.310473 789.143174 840.437028 
C 791.269729 842.563584 794.154362 843.758437 797.161765 843.758437 
z
" style="fill:#ff0000;stroke:#ff0000;stroke-linejoin:miter;"/>
    </g>
    <g id="text_65">
     <!-- 18 -->
     <g style="fill:#ffffff;" transform="translate(787.420827 836.281562)scale(0.14 -0.14)">
      <use xlink:href="#DejaVuSans-Bold-31"/>
      <use x="69.580078" xlink:href="#DejaVuSans-Bold-38"/>
     </g>
    </g>
    <g id="text_66">
     <!-- South African -->
     <g style="fill:#0099aa;" transform="translate(818.311765 838.718437)scale(0.18 -0.18)">
      <use xlink:href="#DejaVuSans-Bold-53"/>
      <use x="72.021484" xlink:href="#DejaVuSans-Bold-6f"/>
      <use x="140.722656" xlink:href="#DejaVuSans-Bold-75"/>
      <use x="211.914062" xlink:href="#DejaVuSans-Bold-74"/>
      <use x="259.716797" xlink:href="#DejaVuSans-Bold-68"/>
      <use x="330.908203" xlink:href="#DejaVuSans-Bold-20"/>
      <use x="365.722656" xlink:href="#DejaVuSans-Bold-41"/>
      <use x="443.115234" xlink:href="#DejaVuSans-Bold-66"/>
      <use x="486.621094" xlink:href="#DejaVuSans-Bold-72"/>
      <use x="535.9375" xlink:href="#DejaVuSans-Bold-69"/>
      <use x="570.214844" xlink:href="#DejaVuSans-Bold-63"/>
      <use x="629.492188" xlink:href="#DejaVuSans-Bold-61"/>
      <use x="696.972656" xlink:href="#DejaVuSans-Bold-6e"/>
     </g>
    </g>
   </g>
  </g>
 </g>
 <defs>
  <clipPath id="p42afa45128">
   <rect height="207.556364" width="262.588235" x="144" y="192.632727"/>
  </clipPath>
  <clipPath id="pcf7c393840">
   <rect height="207.556364" width="262.588235" x="459.105882" y="192.632727"/>
  </clipPath>
  <clipPath id="p1e8a1b9057">
   <rect height="207.556364" width="262.588235" x="774.211765" y="192.632727"/>
  </clipPath>
  <clipPath id="peac7f54b44">
   <rect height="207.556364" width="262.588235" x="144" y="548.443636"/>
  </clipPath>
  <clipPath id="pca4389d6d5">
   <rect height="207.556364" width="262.588235" x="459.105882" y="548.443636"/>
  </clipPath>
  <clipPath id="p9226de3af3">
   <rect height="207.556364" width="262.588235" x="774.211765" y="548.443636"/>
  </clipPath>
 </defs>
</svg>
